<?xml version="1.0" encoding="utf-8"?>
<!-- Generator: Adobe Illustrator 27.5.0, SVG Export Plug-In . SVG Version: 6.00 Build 0)  -->
<svg version="1.1" xmlns="http://www.w3.org/2000/svg" xmlns:xlink="http://www.w3.org/1999/xlink" x="0px" y="0px"
	 viewBox="0 0 3710 3710" style="enable-background:new 0 0 3710 3710;" xml:space="preserve">
<g id="Background">
	<g>
		<g>
			<rect style="fill:#FFFFFF;" width="3710" height="3710"/>
		</g>
	</g>
</g>
<g id="Illustration">
	<g>
		<linearGradient id="SVGID_1_" gradientUnits="userSpaceOnUse" x1="3556.4443" y1="4018.7146" x2="1108.0449" y2="977.956">
			<stop  offset="0" style="stop-color:#DAE3FE"/>
			<stop  offset="1" style="stop-color:#E9EFFD"/>
		</linearGradient>
		<path style="fill:url(#SVGID_1_);" d="M2882.874,2819.549c-56.239,59.206-109.451,97.387-151.494,127.552
			c-494.198,354.593-1078.966,251.231-1203.246,225.989c-183.522-37.274-538.266-109.325-794.74-410.932
			c-388.023-456.307-327.602-1175.206-26.625-1649.762c55.053-86.804,345.862-568.588,936.927-645.851
			c357.707-46.759,774.678,47.548,1076.637,300.53C3354.174,1298.106,3309.051,2370.884,2882.874,2819.549z"/>
		<g>
			<g>
				<path style="fill:#91B3FA;" d="M2438.097,2021.165c0,0-8.045-338.252,147.75-428.783
					c155.795-90.531,452.017-147.131,463.12-632.829c6.501-284.349,13.537-408.671,18.252-462.881
					c1.84-21.147-16.952-38.215-37.811-34.286c-147.551,27.796-626.881,142.207-727.376,469.371
					C2182.895,1319.614,2438.097,2021.165,2438.097,2021.165z"/>
				<path style="fill:#BDD0FB;" d="M2915.298,597.522c-161.967,144.452-349.252,400.101-449.076,655.752
					c-12.814,42.133-50.295,131.732-66.572,290.927c-14.538,132.771-7.311,273.071,10.317,365.942
					c1.115,5.871,6.778,9.728,12.649,8.613c10.096-1.915,8.753-12.774,8.662-12.431c-20.132-158.672-11.775-356.167,34.354-534.365
					c58.935-218.806,190.383-430.946,326.343-610.87l13.991-17.717c105.336-135.277,127.512-136.273,117.664-145.703
					C2921.305,595.442,2917.664,595.422,2915.298,597.522z"/>
			</g>
			<g>
				<path style="fill:#BDD0FB;" d="M2243.4,2641.6c-21.078,10.336,199.55-267.106,268.663-702.85
					c32.567-205.334,32.993-462.599,149.959-561.74c97.348-82.512,428.61-30.419,536.999-10.623
					c13.544,2.473,18.104,19.582,7.561,28.437c-51.979,43.653-163.17,146.62-192.142,250.391
					c-38.187,136.778-168.225,223.777-284.642,247.322c-116.417,23.544-181.177,46.394-237.892,232.57
					C2435.191,2311.283,2303.293,2612.232,2243.4,2641.6z"/>
				
					<linearGradient id="SVGID_00000052071956723270458830000010289524378735326886_" gradientUnits="userSpaceOnUse" x1="2516.0469" y1="1711.2249" x2="3049.6797" y2="1711.2249">
					<stop  offset="0" style="stop-color:#DAE3FE"/>
					<stop  offset="1" style="stop-color:#E9EFFD"/>
				</linearGradient>
				<path style="fill:url(#SVGID_00000052071956723270458830000010289524378735326886_);" d="M3046.579,1424.179
					c-138.288,5.792-286.729,68.874-362.057,187.203l-7.11,11.291c-16.421,26.476-109.487,214.688-161.176,370.706
					c-0.643,1.945,0.411,4.044,2.355,4.689c3.304,1.094,4.958-2.542,4.643-2.221c36.012-88.138,87.735-199.884,128.93-283.448
					c44.177-91.186,75.093-152.939,175.859-212.09c112.156-63.703,219.304-70.261,218.983-70.195
					c1.635-0.167,2.826-1.628,2.659-3.263C3049.504,1425.278,3048.137,1424.117,3046.579,1424.179z"/>
			</g>
		</g>
		<g>
			
				<linearGradient id="SVGID_00000175324843634989111660000015386640809916640921_" gradientUnits="userSpaceOnUse" x1="1862.2874" y1="3041.019" x2="1738.5612" y2="-621.3378">
				<stop  offset="0" style="stop-color:#09005D"/>
				<stop  offset="1" style="stop-color:#1A0F91"/>
			</linearGradient>
			<path style="fill:url(#SVGID_00000175324843634989111660000015386640809916640921_);" d="M991.82,1111.557
				c0-87.366,70.824-158.19,158.191-158.19H2495.27c74.217,0,135.415,58.161,139.188,132.282l99.299,1950.375
				c2.953,58.002-42.706,106.927-100.773,107.983l-1541.837,28.022c-54.562,0.991-99.327-42.967-99.327-97.538V1111.557z"/>
			<path style="fill:#91B3FA;" d="M1316.491,3138.872h-0.048l-172.523-2.23c-57.688-0.749-104.62-48.292-104.62-105.981v-260.477
				c0-2.036,1.649-3.683,3.683-3.683c2.034,0,3.683,1.647,3.683,3.683v260.477c0,53.679,43.669,97.917,97.349,98.615l172.521,2.23
				c2.034,0.025,3.661,1.698,3.636,3.73C1320.145,3137.253,1318.502,3138.872,1316.491,3138.872z"/>
			
				<linearGradient id="SVGID_00000044145700122003733320000012524431431798488476_" gradientUnits="userSpaceOnUse" x1="813.3113" y1="2522.4983" x2="2215.5691" y2="3413.3459">
				<stop  offset="0" style="stop-color:#A737D5"/>
				<stop  offset="1" style="stop-color:#EF497A"/>
			</linearGradient>
			<path style="fill:url(#SVGID_00000044145700122003733320000012524431431798488476_);" d="M1042.983,2693.183
				c-2.034,0-3.683-1.647-3.683-3.683v-42.184c0-2.036,1.649-3.683,3.683-3.683c2.034,0,3.683,1.648,3.683,3.683v42.184
				C1046.666,2691.535,1045.017,2693.183,1042.983,2693.183z"/>
			<g>
				
					<linearGradient id="SVGID_00000165942442964923293050000012483363227810716092_" gradientUnits="userSpaceOnUse" x1="3991.0322" y1="257.7309" x2="3001.3721" y2="1068.0555">
					<stop  offset="0" style="stop-color:#E1473D"/>
					<stop  offset="1" style="stop-color:#E9605A"/>
				</linearGradient>
				<path style="fill:url(#SVGID_00000165942442964923293050000012483363227810716092_);" d="M1102.031,983.386
					c-0.165-27.952,24.418-49.586,52.117-45.83c183.707,24.913,815.429,101.962,1337.729,61.868
					c23.819-1.828,44.49,16.218,45.758,40.074l104.12,1959.068c1.428,26.862-19.084,49.833-45.937,51.422
					c-219.669,13-1124.337,63.253-1447.019,29.456c-19.639-2.057-34.547-18.592-34.663-38.338L1102.031,983.386z"/>
				
					<linearGradient id="SVGID_00000003803919645899441150000001888130799076349064_" gradientUnits="userSpaceOnUse" x1="2569.7493" y1="1482.6138" x2="4123.9819" y2="333.545">
					<stop  offset="0" style="stop-color:#FEBBBA"/>
					<stop  offset="1" style="stop-color:#FF928E"/>
				</linearGradient>
				<path style="fill:url(#SVGID_00000003803919645899441150000001888130799076349064_);" d="M1123.67,1032.479
					c-0.158-26.899,23.498-47.719,50.155-44.104c176.789,23.974,784.723,98.123,1287.356,59.538
					c22.922-1.76,42.814,15.608,44.034,38.565l100.2,1885.299c1.374,25.85-18.366,47.956-44.208,49.486
					c-211.397,12.51-1082,60.871-1392.531,28.346c-18.899-1.979-33.246-17.892-33.357-36.895L1123.67,1032.479z"/>
				<path style="opacity:0.78;fill:#FFFFFF;" d="M1287.328,1177.833l18.776,404.189c0.625,13.443,11.484,24.132,24.937,24.511
					c74.856,2.111,308.111,7.8,439.816,0.934c14.898-0.777,26.684-12.829,27.178-27.739c2.511-75.8,8.007-296.423-9.266-388.651
					c-2.79-14.898-15.595-25.814-30.743-26.344l-442.451-15.473C1299.62,1148.704,1286.587,1161.886,1287.328,1177.833z"/>
				<g style="opacity:0.6;">
					<path style="fill:#FFFFFF;" d="M2394.998,1213.018c8.272,0,14.863-6.102,14.645-13.559c-0.218-7.457-7.164-13.68-15.435-13.827
						l-486.625-8.672c-8.271-0.147-12.79,6.116-10.042,13.919l2.801,7.953c2.748,7.803,11.765,14.187,20.038,14.187H2394.998z"/>
				</g>
				<g style="opacity:0.6;">
					<path style="fill:#FFFFFF;" d="M1907.584,1252.309c-8.271-0.147-12.79,6.116-10.042,13.919l2.801,7.952
						c2.748,7.803,11.765,14.187,20.038,14.187h474.618c8.272,0,14.863-6.102,14.645-13.559c-0.218-7.458-7.164-13.68-15.435-13.827
						L1907.584,1252.309z"/>
				</g>
				<g style="opacity:0.6;">
					<path style="fill:#FFFFFF;" d="M1907.584,1328.755c-8.271-0.147-12.79,6.116-10.042,13.919l2.801,7.952
						c2.748,7.803,11.765,14.187,20.038,14.187h474.618c8.272,0,14.863-6.102,14.645-13.559c-0.218-7.458-7.164-13.68-15.435-13.827
						L1907.584,1328.755z"/>
				</g>
				<g style="opacity:0.6;">
					<path style="fill:#FFFFFF;" d="M2442.125,1733.474c8.273,0,14.638-6.102,14.146-13.559
						c-0.492-7.458-7.664-13.613-15.936-13.678l-1138.097-8.971c-8.272-0.065-10.824,5.176-5.671,11.648l10.186,12.793
						c5.153,6.472,16.138,11.767,24.411,11.767H2442.125z"/>
				</g>
				<g style="opacity:0.6;">
					<path style="fill:#FFFFFF;" d="M1302.238,1772.617c-8.272-0.065-10.824,5.176-5.671,11.648l10.186,12.793
						c5.153,6.472,16.138,11.767,24.411,11.767h1110.961c8.273,0,14.638-6.102,14.146-13.559
						c-0.492-7.458-7.664-13.613-15.936-13.678L1302.238,1772.617z"/>
				</g>
				
					<linearGradient id="SVGID_00000067204258922750941990000008828673783324760238_" gradientUnits="userSpaceOnUse" x1="1136.8679" y1="1788.3906" x2="2431.894" y2="2823.5847">
					<stop  offset="0" style="stop-color:#A737D5"/>
					<stop  offset="1" style="stop-color:#EF497A"/>
				</linearGradient>
				<path style="fill:url(#SVGID_00000067204258922750941990000008828673783324760238_);" d="M1297.829,1898.431
					c27.329-2.094,78.508-3.065,106.68-3.459c11.938-0.167,22.407,7.919,25.206,19.525c5.437,22.541,12.938,61.68,11.994,103.149
					c-0.283,12.419-10.456,22.333-22.878,22.199l-103.962-1.12c-12.785-0.137-23.399-9.911-24.589-22.641l-9.14-97.802
					C1280.195,1908.166,1287.698,1899.207,1297.829,1898.431z"/>
				<g style="opacity:0.6;">
					<path style="fill:#FFFFFF;" d="M1489.363,1938.561c-8.266-0.346-14.023,6.065-12.794,14.246l2.732,18.19
						c1.229,8.181,9.002,14.874,17.275,14.874h253.932c8.273,0,14.957-6.768,14.854-15.04l-0.071-5.707
						c-0.103-8.272-6.95-15.323-15.215-15.668L1489.363,1938.561z"/>
				</g>
				
					<linearGradient id="SVGID_00000011005971121635630020000010383900335310425251_" gradientUnits="userSpaceOnUse" x1="1989.2299" y1="1924.5427" x2="3510.2493" y2="848.5372">
					<stop  offset="0" style="stop-color:#FF928E"/>
					<stop  offset="1" style="stop-color:#FE7062"/>
				</linearGradient>
				<path style="fill:url(#SVGID_00000011005971121635630020000010383900335310425251_);" d="M1864.202,1898.431
					c27.329-2.094,78.508-3.065,106.681-3.459c11.938-0.167,22.407,7.919,25.207,19.525c5.437,22.541,12.937,61.68,11.993,103.149
					c-0.283,12.419-10.456,22.333-22.878,22.199l-103.962-1.12c-12.784-0.137-23.399-9.911-24.589-22.641l-9.14-97.802
					C1846.568,1908.166,1854.071,1899.207,1864.202,1898.431z"/>
				<g style="opacity:0.6;">
					<path style="fill:#FFFFFF;" d="M2055.736,1938.561c-8.265-0.346-14.023,6.065-12.794,14.246l2.732,18.19
						c1.229,8.181,9.002,14.874,17.275,14.874h253.932c8.272,0,14.957-6.768,14.854-15.04l-0.071-5.707
						c-0.103-8.272-6.95-15.323-15.215-15.668L2055.736,1938.561z"/>
				</g>
				<g>
					<g style="opacity:0.6;">
						<path style="fill:#FFFFFF;" d="M1265.966,2233.019c3.563,10.531,15.838,17.837,29.811,17.745l1138.785-7.568
							c12.883-0.085,23.188-8.366,22.907-18.405c-0.274-9.76-10.474-17.574-22.998-17.618l-1138.815-4.048
							C1275.553,2203.053,1260.839,2217.869,1265.966,2233.019z"/>
					</g>
					<g style="opacity:0.6;">
						<path style="fill:#FFFFFF;" d="M1265.966,2438.626c3.563,10.531,15.838,17.837,29.811,17.744l1138.785-7.568
							c12.883-0.085,23.188-8.366,22.907-18.405c-0.274-9.76-10.474-17.573-22.998-17.618l-1138.815-4.049
							C1275.553,2408.66,1260.839,2423.476,1265.966,2438.626z"/>
					</g>
					<g style="opacity:0.6;">
						<path style="fill:#FFFFFF;" d="M1265.966,2644.233c3.563,10.531,15.838,17.838,29.811,17.745l1138.785-7.568
							c12.883-0.085,23.188-8.365,22.907-18.405c-0.274-9.76-10.474-17.573-22.998-17.618l-1138.815-4.049
							C1275.553,2614.267,1260.839,2629.083,1265.966,2644.233z"/>
					</g>
					<g style="opacity:0.6;">
						<path style="fill:#FFFFFF;" d="M1265.966,2849.84L1265.966,2849.84c3.563,10.532,15.838,17.838,29.811,17.745l1138.785-7.568
							c12.883-0.086,23.188-8.366,22.907-18.406c-0.274-9.76-10.474-17.573-22.998-17.617l-1138.815-4.049
							C1275.553,2819.874,1260.839,2834.689,1265.966,2849.84z"/>
					</g>
				</g>
			</g>
			
				<linearGradient id="SVGID_00000038387560667277019780000017533426440177597334_" gradientUnits="userSpaceOnUse" x1="2056.1641" y1="486.6392" x2="1437.3923" y2="1300.6188">
				<stop  offset="0" style="stop-color:#09005D"/>
				<stop  offset="1" style="stop-color:#1A0F91"/>
			</linearGradient>
			<path style="fill:url(#SVGID_00000038387560667277019780000017533426440177597334_);" d="M1906.075,687.443
				c-48.593-33.805-90.845-33.135-120.588-24.359c-27.133,8.006-44.718,34.201-42.137,62.373l12.827,140.006l152.636,13.546
				C1908.813,879.009,2001.373,753.74,1906.075,687.443z M1838.951,800.393c-21.02,0-38.059-17.039-38.059-38.059
				s17.04-38.06,38.059-38.06c21.02,0,38.06,17.04,38.06,38.06S1859.971,800.393,1838.951,800.393z"/>
			<path style="fill:#91B3FA;" d="M1771.423,806.568c-1.883,0-3.489-1.435-3.663-3.349l-2.043-22.297
				c-0.187-2.025,1.306-3.817,3.331-4.004c2.066-0.194,3.82,1.306,4.003,3.335l2.043,22.297c0.187,2.025-1.306,3.816-3.331,4.003
				C1771.649,806.565,1771.535,806.568,1771.423,806.568z M1767.42,762.873c-1.883,0-3.489-1.435-3.663-3.349l-1.552-16.927
				c-2.46-26.836,14.427-51.824,40.15-59.417c18.218-5.377,36.988-6.147,55.785-2.291c1.992,0.406,3.276,2.356,2.868,4.348
				c-0.408,1.989-2.34,3.262-4.347,2.867c-17.608-3.604-35.175-2.888-52.223,2.14c-22.36,6.6-37.039,28.336-34.9,51.683
				l1.552,16.927c0.187,2.025-1.306,3.817-3.331,4.004C1767.645,762.87,1767.532,762.873,1767.42,762.873z"/>
			
				<linearGradient id="SVGID_00000135687356880936058150000001109455356710754710_" gradientUnits="userSpaceOnUse" x1="2124.0386" y1="538.2344" x2="1505.2662" y2="1352.2147">
				<stop  offset="0" style="stop-color:#09005D"/>
				<stop  offset="1" style="stop-color:#1A0F91"/>
			</linearGradient>
			<path style="fill:url(#SVGID_00000135687356880936058150000001109455356710754710_);" d="M1547.856,955.942v-70.391
				c0-24.299,20.139-43.76,44.424-42.929l485.315,16.628c21.538,0.738,38.98,17.738,40.27,39.25l4.056,67.635L1547.856,955.942z"/>
			<path style="fill:#91B3FA;" d="M1728.817,869.146h-20.871c-2.034,0-3.683-1.647-3.683-3.683c0-2.036,1.649-3.683,3.683-3.683
				h20.871c2.034,0,3.683,1.647,3.683,3.683C1732.5,867.499,1730.851,869.146,1728.817,869.146z"/>
			<path style="fill:#91B3FA;" d="M1574.124,933.839c-2.034,0-3.683-1.647-3.683-3.683v-28.476c0-22.002,17.899-39.9,39.901-39.9
				h76.732c2.034,0,3.683,1.647,3.683,3.683c0,2.036-1.649,3.683-3.683,3.683h-76.732c-17.939,0-32.535,14.596-32.535,32.534v28.476
				C1577.807,932.192,1576.158,933.839,1574.124,933.839z"/>
			
				<linearGradient id="SVGID_00000134951092748060413530000003577288726396685728_" gradientUnits="userSpaceOnUse" x1="2046.0625" y1="588.0245" x2="1618.8135" y2="1372.5406">
				<stop  offset="0" style="stop-color:#FF928E"/>
				<stop  offset="1" style="stop-color:#FE7062"/>
			</linearGradient>
			<path style="fill:url(#SVGID_00000134951092748060413530000003577288726396685728_);" d="M1350.11,973.717
				c1.171-24.375,21.275-43.536,45.678-43.537l848.664-0.023c30.516-0.001,56.604,21.959,61.809,52.027l0.718,4.15
				c5.701,32.935-19.655,63.058-53.08,63.058h-870.679c-20.003,0-35.944-16.725-34.984-36.705L1350.11,973.717z"/>
		</g>
		<g>
			<g>
				
					<linearGradient id="SVGID_00000031919001202701778960000003204455148726852992_" gradientUnits="userSpaceOnUse" x1="1372.4312" y1="2666.127" x2="1214.6838" y2="2888.634">
					<stop  offset="0" style="stop-color:#09005D"/>
					<stop  offset="1" style="stop-color:#1A0F91"/>
				</linearGradient>
				
					<rect x="498.444" y="2896.287" style="fill:url(#SVGID_00000031919001202701778960000003204455148726852992_);" width="1220.045" height="284.34"/>
				
					<linearGradient id="SVGID_00000132769028324634465350000001769987628390180252_" gradientUnits="userSpaceOnUse" x1="1811.3436" y1="2140.9436" x2="724.6689" y2="3628.9688">
					<stop  offset="0" style="stop-color:#4F52FF"/>
					<stop  offset="1" style="stop-color:#4042E2"/>
				</linearGradient>
				<path style="fill:url(#SVGID_00000132769028324634465350000001769987628390180252_);" d="M1734.813,3162.429H480.778
					c-4.271,0-7.733-3.462-7.733-7.733v-101.454H1739.98v104.02C1739.98,3160.116,1737.666,3162.429,1734.813,3162.429z"/>
				
					<linearGradient id="SVGID_00000078737482958159982550000009958433071108527751_" gradientUnits="userSpaceOnUse" x1="1113.1282" y1="2842.6633" x2="1143.2015" y2="2217.7988">
					<stop  offset="0" style="stop-color:#4F52FF"/>
					<stop  offset="1" style="stop-color:#4042E2"/>
				</linearGradient>
				<path style="fill:url(#SVGID_00000078737482958159982550000009958433071108527751_);" d="M1732.313,3038.457H482.612
					c-5.283,0-9.566-4.283-9.566-9.567v-99.62H1739.98v101.52C1739.98,3035.024,1736.547,3038.457,1732.313,3038.457z"/>
				
					<linearGradient id="SVGID_00000038387600879094989680000007478981076012735376_" gradientUnits="userSpaceOnUse" x1="2076.3777" y1="1929.5746" x2="1798.4008" y2="2210.9009">
					<stop  offset="0" style="stop-color:#09005D"/>
					<stop  offset="1" style="stop-color:#1A0F91"/>
				</linearGradient>
				<path style="fill:url(#SVGID_00000038387600879094989680000007478981076012735376_);" d="M1739.98,2929.27H473.045v-33.045
					c0-4.363,3.537-7.9,7.9-7.9H1731.98c4.418,0,8,3.582,8,8V2929.27z"/>
			</g>
			<g>
				
					<linearGradient id="SVGID_00000128479747663680041600000016714070116067810486_" gradientUnits="userSpaceOnUse" x1="3372.9241" y1="3248.5491" x2="3628.6421" y2="3311.6482">
					<stop  offset="0" style="stop-color:#4F52FF"/>
					<stop  offset="1" style="stop-color:#4042E2"/>
				</linearGradient>
				<path style="fill:url(#SVGID_00000128479747663680041600000016714070116067810486_);" d="M2853.512,3023.666
					c41.051,19.962,55.529,74.807,32.337,122.5s-75.271,70.172-116.323,50.209s-55.529-74.807-32.337-122.5
					S2812.461,3003.704,2853.512,3023.666z"/>
				
					<linearGradient id="SVGID_00000078763227048939206530000005587829166800542857_" gradientUnits="userSpaceOnUse" x1="2188.2837" y1="2730.5969" x2="2556.9666" y2="2961.4546">
					<stop  offset="0" style="stop-color:#4F52FF"/>
					<stop  offset="1" style="stop-color:#4042E2"/>
				</linearGradient>
				<path style="fill:url(#SVGID_00000078763227048939206530000005587829166800542857_);" d="M2787.073,3044.686l-42.04,86.451
					c-1.51,3.106-5.252,4.399-8.358,2.889l-52.612-25.584c-3.106-1.51-4.399-5.252-2.889-8.358l42.04-86.451
					c1.51-3.106,5.252-4.399,8.358-2.889l52.612,25.584C2787.29,3037.838,2788.584,3041.58,2787.073,3044.686z"/>
				
					<linearGradient id="SVGID_00000003093762139796568330000001929595078667479227_" gradientUnits="userSpaceOnUse" x1="3157.0735" y1="3124.5593" x2="1356.9143" y2="2247.8342" gradientTransform="matrix(0.9989 -0.0469 0.0469 0.9989 -40.006 301.738)">
					<stop  offset="0" style="stop-color:#4F52FF"/>
					<stop  offset="1" style="stop-color:#4042E2"/>
				</linearGradient>
				<path style="fill:url(#SVGID_00000003093762139796568330000001929595078667479227_);" d="M2733.178,3002.974
					c-7.543,38.708-24.727,73.283-50.855,104.025c-14.118,16.611-36.768,24.049-59.296,19.525
					c-215.366-43.244-666.735-322.216-1105.079-565.924c-29.05-16.151-49.128-34.474-35.438-62.625l30.23-62.166
					c13.605-27.977,46.163-12.227,76.716,0.325c463.673,190.498,955.457,356.55,1124.286,510.191
					C2729.943,2961.071,2737.159,2982.548,2733.178,3002.974z"/>
				
					<linearGradient id="SVGID_00000132788729083389703010000007365856610978932105_" gradientUnits="userSpaceOnUse" x1="1238.9219" y1="2275.593" x2="1518.7312" y2="2475.95">
					<stop  offset="0" style="stop-color:#09005D"/>
					<stop  offset="1" style="stop-color:#1A0F91"/>
				</linearGradient>
				<path style="fill:url(#SVGID_00000132788729083389703010000007365856610978932105_);" d="M1583.046,2372.271l-102.632,211.054
					c-1.449,2.98-5.04,4.221-8.02,2.772l-54.139-26.327c-2.98-1.449-4.221-5.04-2.772-8.02l102.632-211.054
					c1.449-2.98,5.04-4.221,8.02-2.772l54.139,26.327C1583.254,2365.7,1584.495,2369.291,1583.046,2372.271z"/>
				
					<linearGradient id="SVGID_00000003089737307266240430000017020746842901214653_" gradientUnits="userSpaceOnUse" x1="1969.4945" y1="2631.9744" x2="1066.8605" y2="2261.0979">
					<stop  offset="0" style="stop-color:#4F52FF"/>
					<stop  offset="1" style="stop-color:#4042E2"/>
				</linearGradient>
				<path style="fill:url(#SVGID_00000003089737307266240430000017020746842901214653_);" d="M1126.852,2161.583l-102.632,211.054
					c-1.449,2.98-5.04,4.221-8.02,2.772l-54.139-26.327c-2.98-1.449-4.221-5.04-2.772-8.02l102.632-211.054
					c1.449-2.98,5.04-4.221,8.02-2.772l54.139,26.327C1127.06,2155.013,1128.301,2158.603,1126.852,2161.583z"/>
				
					<linearGradient id="SVGID_00000090258781684510759850000002184017040911378077_" gradientUnits="userSpaceOnUse" x1="1015.1435" y1="2278.6313" x2="1438.572" y2="2487.855">
					<stop  offset="0" style="stop-color:#4F52FF"/>
					<stop  offset="1" style="stop-color:#4042E2"/>
				</linearGradient>
				<polygon style="fill:url(#SVGID_00000090258781684510759850000002184017040911378077_);" points="1628.078,2166.159 
					1303.783,2833.047 851.975,2613.342 1176.27,1946.453 				"/>
				
					<linearGradient id="SVGID_00000183957575416122683560000016952819874890127250_" gradientUnits="userSpaceOnUse" x1="730.0428" y1="2978.0322" x2="979.1183" y2="2798.6978">
					<stop  offset="0" style="stop-color:#09005D"/>
					<stop  offset="1" style="stop-color:#1A0F91"/>
				</linearGradient>
				<polygon style="fill:url(#SVGID_00000183957575416122683560000016952819874890127250_);" points="1320.886,2797.877 
					1280.102,2881.745 828.294,2662.04 869.078,2578.171 				"/>
				
					<linearGradient id="SVGID_00000048475070528093630500000012353718129668674949_" gradientUnits="userSpaceOnUse" x1="873.4936" y1="3265.7556" x2="1019.6181" y2="2870.5559">
					<stop  offset="0" style="stop-color:#4F52FF"/>
					<stop  offset="1" style="stop-color:#4042E2"/>
				</linearGradient>
				<path style="fill:url(#SVGID_00000048475070528093630500000012353718129668674949_);" d="M1298.521,2843.869l-20.269,41.682
					c-6.197,12.744-20.713,19.137-34.298,15.103c-140.84-41.827-277.15-107.004-408.299-198.783
					c-11.484-8.036-15.426-23.246-9.296-35.851l20.354-41.856L1298.521,2843.869z"/>
				
					<linearGradient id="SVGID_00000111905014987609856540000005071886937255152011_" gradientUnits="userSpaceOnUse" x1="762.8034" y1="1838.7252" x2="913.1592" y2="2221.4497">
					<stop  offset="0" style="stop-color:#09005D"/>
					<stop  offset="1" style="stop-color:#1A0F91"/>
				</linearGradient>
				<path style="fill:url(#SVGID_00000111905014987609856540000005071886937255152011_);" d="M1344.141,2781.01l-16.899,34.751
					c-1.51,3.104-5.25,4.397-8.354,2.887l-473.032-230.026c-3.104-1.51-4.397-5.25-2.888-8.354l16.899-34.751
					c1.509-3.104,5.25-4.397,8.354-2.887l473.032,230.026C1344.358,2774.166,1345.65,2777.906,1344.141,2781.01z"/>
				
					<linearGradient id="SVGID_00000176044721066382081740000006144685061279862457_" gradientUnits="userSpaceOnUse" x1="859.7351" y1="3345.5659" x2="1078.6178" y2="2723.1169">
					<stop  offset="0" style="stop-color:#4F52FF"/>
					<stop  offset="1" style="stop-color:#4042E2"/>
				</linearGradient>
				<path style="fill:url(#SVGID_00000176044721066382081740000006144685061279862457_);" d="M1341.438,2786.569l-11.493,23.635
					c-1.367,2.812-4.755,3.983-7.568,2.615l-474.09-230.541c-2.812-1.367-3.983-4.755-2.616-7.567l11.493-23.635
					c1.367-2.812,4.755-3.983,7.568-2.616l474.09,230.541C1341.634,2780.369,1342.806,2783.757,1341.438,2786.569z"/>
				
					<linearGradient id="SVGID_00000072982078445917266740000017212318434031890107_" gradientUnits="userSpaceOnUse" x1="27.3128" y1="7303.5747" x2="299.8357" y2="6933.0098" gradientTransform="matrix(-0.4373 0.8993 0.8993 0.4373 5523.7446 -3164.8772)">
					<stop  offset="0" style="stop-color:#09005D"/>
					<stop  offset="1" style="stop-color:#1A0F91"/>
				</linearGradient>
				<polygon style="fill:url(#SVGID_00000072982078445917266740000017212318434031890107_);" points="1630.71,2160.748 
					1671.493,2076.879 1219.685,1857.173 1178.902,1941.042 				"/>
				
					<linearGradient id="SVGID_00000122683490610721110650000002018774116775010489_" gradientUnits="userSpaceOnUse" x1="1829.4071" y1="1347.5458" x2="1626.8253" y2="1676.3258">
					<stop  offset="0" style="stop-color:#4F52FF"/>
					<stop  offset="1" style="stop-color:#4042E2"/>
				</linearGradient>
				<path style="fill:url(#SVGID_00000122683490610721110650000002018774116775010489_);" d="M1653.075,2114.755l20.269-41.682
					c6.197-12.744,2.262-28.109-9.3-36.304c-119.869-84.951-255.308-151.92-408.484-198.403c-13.412-4.07-27.81,2.221-33.939,14.826
					l-20.354,41.856L1653.075,2114.755z"/>
				
					<linearGradient id="SVGID_00000083769517995642279050000012690194478822369688_" gradientUnits="userSpaceOnUse" x1="1318.1072" y1="1447.3643" x2="1367.9265" y2="1825.306">
					<stop  offset="0" style="stop-color:#09005D"/>
					<stop  offset="1" style="stop-color:#1A0F91"/>
				</linearGradient>
				<path style="fill:url(#SVGID_00000083769517995642279050000012690194478822369688_);" d="M1631.803,2189.454l16.899-34.751
					c1.51-3.104,0.217-6.844-2.887-8.354l-473.032-230.026c-3.104-1.51-6.844-0.217-8.354,2.887l-16.899,34.751
					c-1.509,3.104-0.217,6.844,2.887,8.354l473.032,230.026C1626.554,2193.851,1630.294,2192.559,1631.803,2189.454z"/>
				
					<linearGradient id="SVGID_00000116952099045990109820000017148192726326378941_" gradientUnits="userSpaceOnUse" x1="1866.8588" y1="1390.7183" x2="1561.5724" y2="1822.9221">
					<stop  offset="0" style="stop-color:#4F52FF"/>
					<stop  offset="1" style="stop-color:#4042E2"/>
				</linearGradient>
				<path style="fill:url(#SVGID_00000116952099045990109820000017148192726326378941_);" d="M1634.506,2183.896l11.493-23.635
					c1.367-2.812,0.196-6.2-2.616-7.567l-474.09-230.541c-2.812-1.367-6.2-0.196-7.567,2.616l-11.493,23.635
					c-1.367,2.812-0.196,6.2,2.616,7.568l474.09,230.541C1629.751,2187.879,1633.139,2186.708,1634.506,2183.896z"/>
			</g>
		</g>
	</g>
</g>
</svg>
