<svg width="190" height="43" viewBox="0 0 190 43" fill="none" xmlns="http://www.w3.org/2000/svg">
<path d="M13.176 20.232C13.224 20.328 13.288 20.696 13.368 21.336C13.464 21.976 13.512 22.52 13.512 22.968C13.512 23.4 13.488 23.744 13.44 24H2.04L1.968 23.16C2.72 22.888 3.4 22.704 4.008 22.608C3.912 16.304 3.832 11.656 3.768 8.664C3.352 8.6 2.648 8.408 1.656 8.088L1.776 7.2H7.56C7.832 7.648 7.968 8.12 7.968 8.616C7.104 8.648 6.48 8.672 6.096 8.688C6.064 11.76 6.032 14.56 6 17.088C5.984 19.6 5.968 21.368 5.952 22.392H11.208L11.784 20.112C12.584 20.112 13.048 20.152 13.176 20.232ZM21.1631 22.656C21.8671 22.656 22.9711 22.32 24.4751 21.648C24.7791 22.064 24.9391 22.432 24.9551 22.752C24.1391 23.232 23.3391 23.608 22.5551 23.88C21.7711 24.152 21.2111 24.288 20.8751 24.288C19.0191 24.288 17.6031 23.736 16.6271 22.632C15.6511 21.512 15.1631 19.952 15.1631 17.952C15.1631 15.952 15.6351 14.384 16.5791 13.248C17.5391 12.096 18.9711 11.52 20.8751 11.52C22.3471 11.52 23.4671 12.048 24.2351 13.104C25.0191 14.16 25.4111 15.576 25.4111 17.352C25.2831 17.576 25.1791 17.728 25.0991 17.808L17.3711 17.688C17.3871 19.304 17.6671 20.536 18.2111 21.384C18.7711 22.232 19.7551 22.656 21.1631 22.656ZM23.2271 16.32C23.2271 15.264 23.0351 14.448 22.6511 13.872C22.2671 13.28 21.6271 12.984 20.7311 12.984C19.8351 12.984 19.0351 13.152 18.3311 13.488C17.8511 14.448 17.5471 15.432 17.4191 16.44C18.6831 16.424 20.6191 16.384 23.2271 16.32ZM33.6844 22.536L35.8204 22.488C38.0284 22.488 39.1324 23.4 39.1324 25.224C39.1324 26.072 38.7644 26.856 38.0284 27.576C37.3084 28.312 36.4444 28.864 35.4364 29.232C34.4284 29.6 33.4844 29.784 32.6044 29.784C31.7404 29.784 30.9324 29.656 30.1804 29.4C29.4284 29.16 28.7884 28.76 28.2604 28.2C27.7324 27.64 27.4684 26.992 27.4684 26.256C27.4684 26.08 27.7484 25.616 28.3084 24.864C28.8844 24.128 29.2604 23.696 29.4364 23.568C29.2924 23.472 29.0124 23.2 28.5964 22.752C28.1804 22.288 27.9484 21.968 27.9004 21.792C28.3004 21.056 28.9324 20.336 29.7964 19.632C28.5164 18.864 27.8764 17.6 27.8764 15.84C27.8764 14.432 28.3244 13.36 29.2204 12.624C30.1164 11.888 31.2364 11.52 32.5804 11.52C33.9244 11.52 34.9644 11.736 35.7004 12.168C36.9804 11.912 38.2364 11.784 39.4684 11.784C39.7724 11.784 39.9244 11.968 39.9244 12.336C39.9244 12.976 39.8044 13.416 39.5644 13.656L36.8044 13.2C37.3804 13.936 37.6684 14.816 37.6684 15.84C37.6684 17.44 37.1964 18.592 36.2524 19.296C35.3084 19.984 34.1484 20.328 32.7724 20.328C32.3404 20.328 31.8284 20.272 31.2364 20.16C30.9964 20.656 30.6924 21.192 30.3244 21.768C30.6124 22.28 31.7324 22.536 33.6844 22.536ZM36.7324 26.952C36.8924 26.504 36.9724 26.04 36.9724 25.56C36.9724 25.096 36.7884 24.72 36.4204 24.432C36.0524 24.144 35.5804 24 35.0044 24C32.7164 24 31.3164 23.976 30.8044 23.928C30.3724 24.616 30.0684 25.192 29.8924 25.656C29.7324 26.136 29.6524 26.408 29.6524 26.472C29.6524 27.096 29.9484 27.56 30.5404 27.864C31.1324 28.168 31.8124 28.32 32.5804 28.32C33.3644 28.32 34.1484 28.192 34.9324 27.936C35.7324 27.68 36.3324 27.352 36.7324 26.952ZM35.5084 15.936C35.5084 13.952 34.5964 12.96 32.7724 12.96C30.9484 12.96 30.0364 13.92 30.0364 15.84C30.0364 16.816 30.2764 17.568 30.7564 18.096C31.2364 18.624 31.9324 18.888 32.8444 18.888C34.6204 18.888 35.5084 17.904 35.5084 15.936ZM50.8714 16.152L50.7514 22.344C51.4394 22.392 52.1274 22.504 52.8154 22.68L52.7674 23.52C52.5114 23.648 52.0474 23.792 51.3754 23.952C50.7194 24.096 50.0714 24.168 49.4314 24.168C49.1434 23.592 48.9834 23.04 48.9514 22.512C47.1274 23.712 45.8474 24.312 45.1114 24.312C43.9754 24.312 43.0634 24.008 42.3754 23.4C41.6874 22.792 41.3434 21.944 41.3434 20.856C41.3434 18.344 42.8794 17.048 45.9514 16.968C47.7434 16.92 48.6474 16.896 48.6634 16.896L48.6394 16.08C48.6074 14.976 48.3994 14.184 48.0154 13.704C47.6314 13.208 46.9434 12.96 45.9514 12.96C45.5354 12.96 45.0874 13.056 44.6074 13.248L44.0314 15.648C43.9514 15.664 43.8154 15.672 43.6234 15.672L42.6394 15.6C42.3834 14.912 42.2474 13.96 42.2314 12.744C42.5354 12.584 43.2314 12.344 44.3194 12.024C45.4074 11.688 46.1034 11.52 46.4074 11.52C48.0394 11.52 49.1914 11.88 49.8634 12.6C50.5354 13.32 50.8714 14.504 50.8714 16.152ZM45.6394 22.68C46.1034 22.68 47.1754 22.16 48.8554 21.12L48.7354 18.12C47.6474 18.216 46.7354 18.304 45.9994 18.384C45.2634 18.464 44.6714 18.68 44.2234 19.032C43.7754 19.368 43.5514 19.904 43.5514 20.64C43.5514 22 44.2474 22.68 45.6394 22.68ZM57.4009 6.168C57.8969 6.168 58.2489 6.184 58.4569 6.216C58.4569 6.776 58.3529 7.416 58.1449 8.136C58.0009 17.576 57.9289 22.32 57.9289 22.368L59.9449 22.56C59.9449 23.008 59.8089 23.488 59.5369 24H54.0169L53.9449 23.16C54.6809 22.904 55.4009 22.712 56.1049 22.584L55.8649 8.064C54.9849 8.016 54.2809 7.92 53.7529 7.776L53.8489 6.528C54.6649 6.288 55.8489 6.168 57.4009 6.168ZM72.4654 8.736L72.2254 22.368L74.2414 22.56C74.2414 23.008 74.1054 23.488 73.8334 24H68.3134L68.2414 23.16C68.9774 22.904 69.7054 22.712 70.4254 22.584C70.3934 21.544 70.3374 19.4 70.2574 16.152C70.1934 12.904 70.1374 10.392 70.0894 8.616C69.4494 8.488 68.7294 8.296 67.9294 8.04L68.0014 7.2H74.0014C74.2734 7.712 74.4094 8.192 74.4094 8.64C73.5934 8.704 72.9454 8.736 72.4654 8.736ZM84.0786 11.52C85.6146 11.52 86.7266 11.904 87.4146 12.672C88.1026 13.424 88.4466 14.576 88.4466 16.128C88.4466 16.576 88.3826 18.656 88.2546 22.368L90.2706 22.56C90.2706 23.008 90.1346 23.488 89.8626 24H84.3426L84.2706 23.16C85.0066 22.904 85.7266 22.712 86.4306 22.584C86.3346 18.392 86.2466 16.064 86.1666 15.6C86.1026 15.12 85.9906 14.704 85.8306 14.352C85.6706 14 85.4306 13.752 85.1106 13.608C84.7906 13.464 84.3666 13.392 83.8386 13.392C82.7826 13.392 81.7586 13.648 80.7666 14.16C80.6706 17.808 80.6066 20.544 80.5746 22.368L82.5906 22.56C82.5906 23.008 82.4546 23.488 82.1826 24H76.6626L76.5906 23.16C77.3266 22.904 78.0466 22.712 78.7506 22.584C78.6546 18.52 78.5746 15.512 78.5106 13.56C77.6306 13.512 76.9266 13.416 76.3986 13.272L76.4946 12.024C77.3586 11.784 78.6146 11.664 80.2626 11.664C80.4546 11.952 80.5986 12.368 80.6946 12.912C81.3826 12.544 82.0706 12.224 82.7586 11.952C83.4626 11.664 83.9026 11.52 84.0786 11.52ZM98.8676 11.52C100.404 11.52 101.516 11.904 102.204 12.672C102.892 13.424 103.236 14.576 103.236 16.128C103.236 16.576 103.172 18.656 103.044 22.368L105.06 22.56C105.06 23.008 104.924 23.488 104.652 24H99.1316L99.0596 23.16C99.7956 22.904 100.516 22.712 101.22 22.584C101.124 18.392 101.036 16.064 100.956 15.6C100.892 15.12 100.78 14.704 100.62 14.352C100.46 14 100.22 13.752 99.8996 13.608C99.5796 13.464 99.1556 13.392 98.6276 13.392C97.5716 13.392 96.5476 13.648 95.5556 14.16C95.4596 17.808 95.3956 20.544 95.3636 22.368L97.3796 22.56C97.3796 23.008 97.2436 23.488 96.9716 24H91.4516L91.3796 23.16C92.1156 22.904 92.8356 22.712 93.5396 22.584C93.4436 18.52 93.3636 15.512 93.2996 13.56C92.4196 13.512 91.7156 13.416 91.1876 13.272L91.2836 12.024C92.1476 11.784 93.4036 11.664 95.0516 11.664C95.2436 11.952 95.3876 12.368 95.4836 12.912C96.1716 12.544 96.8596 12.224 97.5476 11.952C98.2516 11.664 98.6916 11.52 98.8676 11.52ZM111.713 22.848C113.057 22.848 113.961 22.432 114.425 21.6C114.905 20.752 115.145 19.552 115.145 18C115.145 15.536 114.601 13.992 113.513 13.368C113.065 13.112 112.433 12.984 111.617 12.984C110.817 12.984 110.057 13.152 109.337 13.488C108.697 14.72 108.377 16.152 108.377 17.784C108.377 19.352 108.585 20.56 109.001 21.408C109.481 22.368 110.385 22.848 111.713 22.848ZM106.169 18C106.169 15.968 106.633 14.384 107.561 13.248C108.489 12.096 109.921 11.52 111.857 11.52C113.793 11.52 115.193 12.048 116.057 13.104C116.921 14.144 117.353 15.688 117.353 17.736C117.353 19.784 116.889 21.392 115.961 22.56C115.049 23.728 113.657 24.312 111.785 24.312C109.913 24.312 108.505 23.768 107.561 22.68C106.633 21.592 106.169 20.032 106.169 18ZM130.771 13.416L126.091 24H124.387L119.995 13.44L117.979 13.248C117.979 12.8 118.115 12.32 118.387 11.808H124.195L124.267 12.648C123.755 12.872 123.187 13.048 122.563 13.176L124.723 19.728L125.275 21.84H125.563L126.163 19.704L128.395 13.176L126.379 12.648L126.451 11.808H132.331C132.603 12.32 132.739 12.8 132.739 13.248C132.083 13.328 131.427 13.384 130.771 13.416ZM142.887 16.152L142.767 22.344C143.455 22.392 144.143 22.504 144.831 22.68L144.783 23.52C144.527 23.648 144.063 23.792 143.391 23.952C142.735 24.096 142.087 24.168 141.447 24.168C141.159 23.592 140.999 23.04 140.967 22.512C139.143 23.712 137.863 24.312 137.127 24.312C135.991 24.312 135.079 24.008 134.391 23.4C133.703 22.792 133.359 21.944 133.359 20.856C133.359 18.344 134.895 17.048 137.967 16.968C139.759 16.92 140.663 16.896 140.679 16.896L140.655 16.08C140.623 14.976 140.415 14.184 140.031 13.704C139.647 13.208 138.959 12.96 137.967 12.96C137.551 12.96 137.103 13.056 136.623 13.248L136.047 15.648C135.967 15.664 135.831 15.672 135.639 15.672L134.655 15.6C134.399 14.912 134.263 13.96 134.247 12.744C134.551 12.584 135.247 12.344 136.335 12.024C137.423 11.688 138.119 11.52 138.423 11.52C140.055 11.52 141.207 11.88 141.879 12.6C142.551 13.32 142.887 14.504 142.887 16.152ZM137.655 22.68C138.119 22.68 139.191 22.16 140.871 21.12L140.751 18.12C139.663 18.216 138.751 18.304 138.015 18.384C137.279 18.464 136.687 18.68 136.239 19.032C135.791 19.368 135.567 19.904 135.567 20.64C135.567 22 136.263 22.68 137.655 22.68ZM147.953 22.512L147.761 13.464H145.913L145.841 12.624C146.001 12.512 146.465 12.304 147.233 12L149.201 8.928C149.521 8.96 149.769 9.04 149.945 9.168L149.921 11.808C151.121 11.808 152.105 11.888 152.873 12.048C152.873 12.48 152.737 12.952 152.465 13.464H149.873C149.841 15.384 149.809 18.296 149.777 22.2C150.673 22.248 151.569 22.408 152.465 22.68L152.441 23.52C152.217 23.664 151.641 23.832 150.713 24.024C149.801 24.216 149.049 24.312 148.457 24.312C148.377 24.184 148.273 23.912 148.145 23.496C148.017 23.064 147.953 22.736 147.953 22.512ZM158.84 9.528C158.424 9.624 158.016 9.672 157.616 9.672C157.232 9.672 156.848 9.648 156.464 9.6C156.368 9.152 156.32 8.704 156.32 8.256C156.32 7.792 156.336 7.448 156.368 7.224C156.72 7.144 157.088 7.104 157.472 7.104C157.872 7.104 158.296 7.12 158.744 7.152C158.84 7.568 158.888 7.976 158.888 8.376C158.888 8.76 158.872 9.144 158.84 9.528ZM154.472 12.048C155.832 11.808 156.888 11.688 157.64 11.688C158.392 11.688 158.872 11.704 159.08 11.736C159.08 12.12 159.032 12.544 158.936 13.008C158.84 13.472 158.784 13.696 158.768 13.68L158.552 22.368L160.568 22.56C160.568 23.008 160.432 23.488 160.16 24H154.64L154.568 23.16C155.304 22.904 156.024 22.712 156.728 22.584C156.632 18.584 156.552 15.584 156.488 13.584C155.56 13.584 154.856 13.488 154.376 13.296L154.472 12.048ZM167.447 22.848C168.791 22.848 169.695 22.432 170.159 21.6C170.639 20.752 170.879 19.552 170.879 18C170.879 15.536 170.335 13.992 169.247 13.368C168.799 13.112 168.167 12.984 167.351 12.984C166.551 12.984 165.791 13.152 165.071 13.488C164.431 14.72 164.111 16.152 164.111 17.784C164.111 19.352 164.319 20.56 164.735 21.408C165.215 22.368 166.119 22.848 167.447 22.848ZM161.903 18C161.903 15.968 162.367 14.384 163.295 13.248C164.223 12.096 165.655 11.52 167.591 11.52C169.527 11.52 170.927 12.048 171.791 13.104C172.655 14.144 173.087 15.688 173.087 17.736C173.087 19.784 172.623 21.392 171.695 22.56C170.783 23.728 169.391 24.312 167.519 24.312C165.647 24.312 164.239 23.768 163.295 22.68C162.367 21.592 161.903 20.032 161.903 18ZM182.305 11.52C183.841 11.52 184.953 11.904 185.641 12.672C186.329 13.424 186.673 14.576 186.673 16.128C186.673 16.576 186.609 18.656 186.481 22.368L188.497 22.56C188.497 23.008 188.361 23.488 188.089 24H182.569L182.497 23.16C183.233 22.904 183.953 22.712 184.657 22.584C184.561 18.392 184.473 16.064 184.393 15.6C184.329 15.12 184.217 14.704 184.057 14.352C183.897 14 183.657 13.752 183.337 13.608C183.017 13.464 182.593 13.392 182.065 13.392C181.009 13.392 179.985 13.648 178.993 14.16C178.897 17.808 178.833 20.544 178.801 22.368L180.817 22.56C180.817 23.008 180.681 23.488 180.409 24H174.889L174.817 23.16C175.553 22.904 176.273 22.712 176.977 22.584C176.881 18.52 176.801 15.512 176.737 13.56C175.857 13.512 175.153 13.416 174.625 13.272L174.721 12.024C175.585 11.784 176.841 11.664 178.489 11.664C178.681 11.952 178.825 12.368 178.921 12.912C179.609 12.544 180.297 12.224 180.985 11.952C181.689 11.664 182.129 11.52 182.305 11.52Z" fill="#149EB3"/>
<path d="M77.196 35.62C77.66 35.676 78.068 35.892 78.42 36.268C78.78 36.644 78.96 37.172 78.96 37.852C78.96 38.524 78.692 39.052 78.156 39.436C77.628 39.812 76.852 40 75.828 40H72.54L72.504 39.58C72.84 39.444 73.184 39.348 73.536 39.292C73.488 36.204 73.448 33.888 73.416 32.344C73.144 32.296 72.792 32.2 72.36 32.056C72.384 31.76 72.404 31.608 72.42 31.6H75.432C76.504 31.6 77.232 31.692 77.616 31.876C77.8 31.964 77.984 32.08 78.168 32.224C78.536 32.512 78.72 32.988 78.72 33.652C78.72 33.988 78.66 34.292 78.54 34.564C78.428 34.828 78.28 35.032 78.096 35.176C77.76 35.44 77.46 35.588 77.196 35.62ZM75.888 36.136H74.556C74.54 36.824 74.524 37.84 74.508 39.184H75.78C77.108 39.184 77.772 38.688 77.772 37.696C77.772 37.12 77.616 36.716 77.304 36.484C77 36.252 76.528 36.136 75.888 36.136ZM75.312 32.44L74.592 32.452C74.576 33.188 74.568 34.144 74.568 35.32H75.744C76.448 35.32 76.916 35.188 77.148 34.924C77.388 34.652 77.508 34.224 77.508 33.64C77.508 32.84 76.776 32.44 75.312 32.44ZM81.2386 42.232C81.5426 42.232 81.8386 41.94 82.1266 41.356C82.4226 40.772 82.5906 40.32 82.6306 40H82.3426L80.4466 34.72L79.4386 34.624C79.4386 34.4 79.5066 34.16 79.6426 33.904H82.4026L82.4386 34.324C82.1826 34.436 81.8986 34.524 81.5866 34.588L82.6306 37.864L82.9066 38.92H83.0266L84.4666 34.588L83.4586 34.324L83.4946 33.904H86.1946C86.3306 34.16 86.3986 34.4 86.3986 34.624C86.0706 34.664 85.7426 34.692 85.4146 34.708C85.2066 35.316 84.8946 36.224 84.4786 37.432C84.0706 38.64 83.7466 39.576 83.5066 40.24C83.2746 40.904 83.0426 41.444 82.8106 41.86C82.5786 42.276 82.3466 42.552 82.1146 42.688C81.8906 42.832 81.6386 42.904 81.3586 42.904C80.8626 42.904 80.3986 42.808 79.9666 42.616L79.7506 42.508C79.8066 41.596 79.8426 41.096 79.8586 41.008C79.9226 40.984 80.1546 40.972 80.5546 40.972L80.9626 42.196C81.0346 42.22 81.1266 42.232 81.2386 42.232ZM92.26 32.368L92.14 39.184L93.148 39.28C93.148 39.504 93.08 39.744 92.944 40H90.184L90.148 39.58C90.516 39.452 90.88 39.356 91.24 39.292C91.224 38.772 91.196 37.7 91.156 36.076C91.124 34.452 91.096 33.196 91.072 32.308C90.752 32.244 90.392 32.148 89.992 32.02L90.028 31.6H93.028C93.164 31.856 93.232 32.096 93.232 32.32C92.824 32.352 92.5 32.368 92.26 32.368ZM98.0666 33.76C98.8346 33.76 99.3906 33.952 99.7346 34.336C100.079 34.712 100.251 35.288 100.251 36.064C100.251 36.288 100.219 37.328 100.155 39.184L101.163 39.28C101.163 39.504 101.095 39.744 100.959 40H98.1986L98.1626 39.58C98.5306 39.452 98.8906 39.356 99.2426 39.292C99.1946 37.196 99.1506 36.032 99.1106 35.8C99.0786 35.56 99.0226 35.352 98.9426 35.176C98.8626 35 98.7426 34.876 98.5826 34.804C98.4226 34.732 98.2106 34.696 97.9466 34.696C97.4186 34.696 96.9066 34.824 96.4106 35.08C96.3626 36.904 96.3306 38.272 96.3146 39.184L97.3226 39.28C97.3226 39.504 97.2546 39.744 97.1186 40H94.3586L94.3226 39.58C94.6906 39.452 95.0506 39.356 95.4026 39.292C95.3546 37.26 95.3146 35.756 95.2826 34.78C94.8426 34.756 94.4906 34.708 94.2266 34.636L94.2746 34.012C94.7066 33.892 95.3346 33.832 96.1586 33.832C96.2546 33.976 96.3266 34.184 96.3746 34.456C96.7186 34.272 97.0626 34.112 97.4066 33.976C97.7586 33.832 97.9786 33.76 98.0666 33.76ZM105.461 33.76C106.229 33.76 106.785 33.952 107.129 34.336C107.473 34.712 107.645 35.288 107.645 36.064C107.645 36.288 107.613 37.328 107.549 39.184L108.557 39.28C108.557 39.504 108.489 39.744 108.353 40H105.593L105.557 39.58C105.925 39.452 106.285 39.356 106.637 39.292C106.589 37.196 106.545 36.032 106.505 35.8C106.473 35.56 106.417 35.352 106.337 35.176C106.257 35 106.137 34.876 105.977 34.804C105.817 34.732 105.605 34.696 105.341 34.696C104.813 34.696 104.301 34.824 103.805 35.08C103.757 36.904 103.725 38.272 103.709 39.184L104.717 39.28C104.717 39.504 104.649 39.744 104.513 40H101.753L101.717 39.58C102.085 39.452 102.445 39.356 102.797 39.292C102.749 37.26 102.709 35.756 102.677 34.78C102.237 34.756 101.885 34.708 101.621 34.636L101.669 34.012C102.101 33.892 102.729 33.832 103.553 33.832C103.649 33.976 103.721 34.184 103.769 34.456C104.113 34.272 104.457 34.112 104.801 33.976C105.153 33.832 105.373 33.76 105.461 33.76ZM111.884 39.424C112.556 39.424 113.008 39.216 113.24 38.8C113.48 38.376 113.6 37.776 113.6 37C113.6 35.768 113.328 34.996 112.784 34.684C112.56 34.556 112.244 34.492 111.836 34.492C111.436 34.492 111.056 34.576 110.696 34.744C110.376 35.36 110.216 36.076 110.216 36.892C110.216 37.676 110.32 38.28 110.528 38.704C110.768 39.184 111.22 39.424 111.884 39.424ZM109.112 37C109.112 35.984 109.344 35.192 109.808 34.624C110.272 34.048 110.988 33.76 111.956 33.76C112.924 33.76 113.624 34.024 114.056 34.552C114.488 35.072 114.704 35.844 114.704 36.868C114.704 37.892 114.472 38.696 114.008 39.28C113.552 39.864 112.856 40.156 111.92 40.156C110.984 40.156 110.28 39.884 109.808 39.34C109.344 38.796 109.112 38.016 109.112 37ZM121.413 34.708L119.073 40H118.221L116.025 34.72L115.017 34.624C115.017 34.4 115.085 34.16 115.221 33.904H118.125L118.161 34.324C117.905 34.436 117.621 34.524 117.309 34.588L118.389 37.864L118.665 38.92H118.809L119.109 37.852L120.225 34.588L119.217 34.324L119.253 33.904H122.193C122.329 34.16 122.397 34.4 122.397 34.624C122.069 34.664 121.741 34.692 121.413 34.708ZM127.471 36.076L127.411 39.172C127.755 39.196 128.099 39.252 128.443 39.34L128.419 39.76C128.291 39.824 128.059 39.896 127.723 39.976C127.395 40.048 127.071 40.084 126.751 40.084C126.607 39.796 126.527 39.52 126.511 39.256C125.599 39.856 124.959 40.156 124.591 40.156C124.023 40.156 123.567 40.004 123.223 39.7C122.879 39.396 122.707 38.972 122.707 38.428C122.707 37.172 123.475 36.524 125.011 36.484C125.907 36.46 126.359 36.448 126.367 36.448L126.355 36.04C126.339 35.488 126.235 35.092 126.043 34.852C125.851 34.604 125.507 34.48 125.011 34.48C124.803 34.48 124.579 34.528 124.339 34.624L124.051 35.824C124.011 35.832 123.943 35.836 123.847 35.836L123.355 35.8C123.227 35.456 123.159 34.98 123.151 34.372C123.303 34.292 123.651 34.172 124.195 34.012C124.739 33.844 125.087 33.76 125.239 33.76C126.055 33.76 126.631 33.94 126.967 34.3C127.303 34.66 127.471 35.252 127.471 36.076ZM124.855 39.34C125.087 39.34 125.623 39.08 126.463 38.56L126.403 37.06C125.859 37.108 125.403 37.152 125.035 37.192C124.667 37.232 124.371 37.34 124.147 37.516C123.923 37.684 123.811 37.952 123.811 38.32C123.811 39 124.159 39.34 124.855 39.34ZM130.004 39.256L129.908 34.732H128.984L128.948 34.312C129.028 34.256 129.26 34.152 129.644 34L130.628 32.464C130.788 32.48 130.912 32.52 131 32.584L130.988 33.904C131.588 33.904 132.08 33.944 132.464 34.024C132.464 34.24 132.396 34.476 132.26 34.732H130.964C130.948 35.692 130.932 37.148 130.916 39.1C131.364 39.124 131.812 39.204 132.26 39.34L132.248 39.76C132.136 39.832 131.848 39.916 131.384 40.012C130.928 40.108 130.552 40.156 130.256 40.156C130.216 40.092 130.164 39.956 130.1 39.748C130.036 39.532 130.004 39.368 130.004 39.256ZM135.447 32.764C135.239 32.812 135.035 32.836 134.835 32.836C134.643 32.836 134.451 32.824 134.259 32.8C134.211 32.576 134.187 32.352 134.187 32.128C134.187 31.896 134.195 31.724 134.211 31.612C134.387 31.572 134.571 31.552 134.763 31.552C134.963 31.552 135.175 31.56 135.399 31.576C135.447 31.784 135.471 31.988 135.471 32.188C135.471 32.38 135.463 32.572 135.447 32.764ZM133.263 34.024C133.943 33.904 134.471 33.844 134.847 33.844C135.223 33.844 135.463 33.852 135.567 33.868C135.567 34.06 135.543 34.272 135.495 34.504C135.447 34.736 135.419 34.848 135.411 34.84L135.303 39.184L136.311 39.28C136.311 39.504 136.243 39.744 136.107 40H133.347L133.311 39.58C133.679 39.452 134.039 39.356 134.391 39.292C134.343 37.292 134.303 35.792 134.271 34.792C133.807 34.792 133.455 34.744 133.215 34.648L133.263 34.024ZM139.751 39.424C140.423 39.424 140.875 39.216 141.107 38.8C141.347 38.376 141.467 37.776 141.467 37C141.467 35.768 141.195 34.996 140.651 34.684C140.427 34.556 140.111 34.492 139.703 34.492C139.303 34.492 138.923 34.576 138.563 34.744C138.243 35.36 138.083 36.076 138.083 36.892C138.083 37.676 138.187 38.28 138.395 38.704C138.635 39.184 139.087 39.424 139.751 39.424ZM136.979 37C136.979 35.984 137.211 35.192 137.675 34.624C138.139 34.048 138.855 33.76 139.823 33.76C140.791 33.76 141.491 34.024 141.923 34.552C142.355 35.072 142.571 35.844 142.571 36.868C142.571 37.892 142.339 38.696 141.875 39.28C141.419 39.864 140.723 40.156 139.787 40.156C138.851 40.156 138.147 39.884 137.675 39.34C137.211 38.796 136.979 38.016 136.979 37ZM147.18 33.76C147.948 33.76 148.504 33.952 148.848 34.336C149.192 34.712 149.364 35.288 149.364 36.064C149.364 36.288 149.332 37.328 149.268 39.184L150.276 39.28C150.276 39.504 150.208 39.744 150.072 40H147.312L147.276 39.58C147.644 39.452 148.004 39.356 148.356 39.292C148.308 37.196 148.264 36.032 148.224 35.8C148.192 35.56 148.136 35.352 148.056 35.176C147.976 35 147.856 34.876 147.696 34.804C147.536 34.732 147.324 34.696 147.06 34.696C146.532 34.696 146.02 34.824 145.524 35.08C145.476 36.904 145.444 38.272 145.428 39.184L146.436 39.28C146.436 39.504 146.368 39.744 146.232 40H143.472L143.436 39.58C143.804 39.452 144.164 39.356 144.516 39.292C144.468 37.26 144.428 35.756 144.396 34.78C143.956 34.756 143.604 34.708 143.34 34.636L143.388 34.012C143.82 33.892 144.448 33.832 145.272 33.832C145.368 33.976 145.44 34.184 145.488 34.456C145.832 34.272 146.176 34.112 146.52 33.976C146.872 33.832 147.092 33.76 147.18 33.76ZM156.948 39.196C158.14 39.196 158.736 38.712 158.736 37.744C158.736 37.272 158.444 36.872 157.86 36.544C157.596 36.392 157.304 36.248 156.984 36.112C156.672 35.976 156.356 35.828 156.036 35.668C155.716 35.508 155.424 35.336 155.16 35.152C154.904 34.968 154.692 34.736 154.524 34.456C154.364 34.176 154.284 33.86 154.284 33.508C154.284 32.932 154.516 32.444 154.98 32.044C155.452 31.636 156.096 31.432 156.912 31.432C157.728 31.432 158.588 31.68 159.492 32.176C159.492 32.632 159.436 33.204 159.324 33.892C159.148 33.916 158.916 33.928 158.628 33.928L158.268 32.536C158.172 32.488 157.98 32.44 157.692 32.392C157.412 32.344 157.164 32.32 156.948 32.32C156.484 32.32 156.124 32.42 155.868 32.62C155.612 32.812 155.484 33.084 155.484 33.436C155.484 33.78 155.632 34.092 155.928 34.372C156.232 34.644 156.596 34.88 157.02 35.08C157.452 35.272 157.88 35.472 158.304 35.68C158.736 35.888 159.1 36.16 159.396 36.496C159.7 36.824 159.852 37.208 159.852 37.648C159.852 38.448 159.584 39.068 159.048 39.508C158.512 39.94 157.812 40.156 156.948 40.156C156.476 40.156 155.964 40.084 155.412 39.94C154.868 39.788 154.416 39.596 154.056 39.364C154.072 38.828 154.132 38.208 154.236 37.504C154.412 37.48 154.644 37.468 154.932 37.468L155.184 38.908C155.36 38.98 155.624 39.048 155.976 39.112C156.336 39.168 156.66 39.196 156.948 39.196ZM163.683 40.144C162.723 40.144 162.007 39.876 161.535 39.34C161.063 38.796 160.827 38.024 160.827 37.024C160.827 34.848 161.795 33.76 163.731 33.76C164.043 33.76 164.367 33.808 164.703 33.904C165.039 33.992 165.303 34.092 165.495 34.204C165.471 34.948 165.395 35.476 165.267 35.788C165.123 35.828 165.007 35.848 164.919 35.848H164.715C164.675 35.848 164.627 35.844 164.571 35.836L164.271 34.516C164.007 34.492 163.855 34.48 163.815 34.48C163.239 34.48 162.779 34.656 162.435 35.008C162.099 35.36 161.931 35.952 161.931 36.784C161.931 37.616 162.059 38.248 162.315 38.68C162.579 39.112 163.083 39.328 163.827 39.328C164.179 39.328 164.731 39.16 165.483 38.824C165.635 39.032 165.715 39.216 165.723 39.376C165.315 39.616 164.915 39.804 164.523 39.94C164.131 40.076 163.851 40.144 163.683 40.144ZM168.167 31.084C168.415 31.084 168.591 31.092 168.695 31.108C168.695 31.252 168.671 31.44 168.623 31.672C168.583 31.896 168.555 32.028 168.539 32.068C168.539 32.244 168.531 32.608 168.515 33.16C168.499 33.712 168.491 34.14 168.491 34.444C168.835 34.26 169.175 34.1 169.511 33.964C169.855 33.828 170.071 33.76 170.159 33.76C170.927 33.76 171.483 33.952 171.827 34.336C172.171 34.712 172.343 35.288 172.343 36.064C172.343 36.288 172.311 37.328 172.247 39.184L173.255 39.28C173.255 39.504 173.187 39.744 173.051 40H170.291L170.255 39.58C170.623 39.452 170.983 39.356 171.335 39.292C171.287 37.196 171.243 36.032 171.203 35.8C171.171 35.56 171.115 35.352 171.035 35.176C170.955 35 170.835 34.876 170.675 34.804C170.515 34.732 170.303 34.696 170.039 34.696C169.495 34.696 168.975 34.824 168.479 35.08L168.407 39.184L169.415 39.28C169.415 39.504 169.347 39.744 169.211 40H166.451L166.415 39.58C166.783 39.452 167.143 39.356 167.495 39.292L167.351 32.032C166.911 32.008 166.559 31.96 166.295 31.888L166.343 31.264C166.751 31.144 167.359 31.084 168.167 31.084ZM176.665 39.424C177.337 39.424 177.789 39.216 178.021 38.8C178.261 38.376 178.381 37.776 178.381 37C178.381 35.768 178.109 34.996 177.565 34.684C177.341 34.556 177.025 34.492 176.617 34.492C176.217 34.492 175.837 34.576 175.477 34.744C175.157 35.36 174.997 36.076 174.997 36.892C174.997 37.676 175.101 38.28 175.309 38.704C175.549 39.184 176.001 39.424 176.665 39.424ZM173.893 37C173.893 35.984 174.125 35.192 174.589 34.624C175.053 34.048 175.769 33.76 176.737 33.76C177.705 33.76 178.405 34.024 178.837 34.552C179.269 35.072 179.485 35.844 179.485 36.868C179.485 37.892 179.253 38.696 178.789 39.28C178.333 39.864 177.637 40.156 176.701 40.156C175.765 40.156 175.061 39.884 174.589 39.34C174.125 38.796 173.893 38.016 173.893 37ZM183.122 39.424C183.794 39.424 184.246 39.216 184.478 38.8C184.718 38.376 184.838 37.776 184.838 37C184.838 35.768 184.566 34.996 184.022 34.684C183.798 34.556 183.482 34.492 183.074 34.492C182.674 34.492 182.294 34.576 181.934 34.744C181.614 35.36 181.454 36.076 181.454 36.892C181.454 37.676 181.558 38.28 181.766 38.704C182.006 39.184 182.458 39.424 183.122 39.424ZM180.35 37C180.35 35.984 180.582 35.192 181.046 34.624C181.51 34.048 182.226 33.76 183.194 33.76C184.162 33.76 184.862 34.024 185.294 34.552C185.726 35.072 185.942 35.844 185.942 36.868C185.942 37.892 185.71 38.696 185.246 39.28C184.79 39.864 184.094 40.156 183.158 40.156C182.222 40.156 181.518 39.884 181.046 39.34C180.582 38.796 180.35 38.016 180.35 37ZM188.427 31.084C188.675 31.084 188.851 31.092 188.955 31.108C188.955 31.388 188.903 31.708 188.799 32.068C188.727 36.788 188.691 39.16 188.691 39.184L189.699 39.28C189.699 39.504 189.631 39.744 189.495 40H186.735L186.699 39.58C187.067 39.452 187.427 39.356 187.779 39.292L187.659 32.032C187.219 32.008 186.867 31.96 186.603 31.888L186.651 31.264C187.059 31.144 187.651 31.084 188.427 31.084Z" fill="#022E34"/>
</svg>
