<svg width="1216" height="1216" viewBox="0 0 1216 1216" fill="none" xmlns="http://www.w3.org/2000/svg">
<path d="M16.0048 239.232L606.837 10.596C608.232 10.0562 609.778 10.0569 611.173 10.598L1200.44 239.234C1205.63 241.247 1205.52 248.626 1200.27 250.484L611.006 459.172C609.711 459.631 608.299 459.631 607.005 459.174L16.1718 250.485C10.9198 248.63 10.8101 241.243 16.0048 239.232Z" fill="#31428E" stroke="black" stroke-width="20"/>
<path d="M494.888 143.681L603.412 127.638L747.798 153.118L866.703 208.796L920.493 259.755L930.874 283.348C705.898 167.085 420.651 226.726 306.149 271.08H281.613L390.138 186.147L494.888 143.681Z" fill="#334595"/>
<path d="M431.436 232.781L603.434 214.037L773.964 230.068L902.034 266.916L967.193 311.404L1012.58 399.031L1035.19 454.811L1044.63 552.335L603.434 637.276L166.907 547.092L193.123 411.816L275.976 284.601L431.436 232.781Z" fill="#FDD900"/>
<circle cx="608.199" cy="569.162" r="441.122" stroke="black" stroke-width="23"/>
<rect x="484.377" y="1002.4" width="247.645" height="202.698" rx="80" fill="#808D93" stroke="black" stroke-width="20"/>
<rect x="391.4" y="822.86" width="433.599" height="300.261" rx="80" fill="#808D93" stroke="black" stroke-width="20"/>
<path d="M183.772 958.277L20.4322 520.342L605.753 637.173L608.199 637.661L610.646 637.173L1195.97 520.342L1032.63 958.277L608.199 1057.65L183.772 958.277Z" fill="#F78A26" stroke="black" stroke-width="25"/>
<path d="M1048.2 856.14C1092.9 899.719 1098.14 960.889 1066.78 993.059C1035.42 1025.23 974.14 1021.56 929.432 977.977C884.725 934.398 879.488 873.228 910.846 841.058C942.204 808.888 1003.49 812.56 1048.2 856.14Z" fill="#FDD900" stroke="black" stroke-width="21"/>
<path d="M286.969 977.975C242.263 1021.56 180.979 1025.23 149.62 993.062C118.261 960.894 123.496 899.723 168.202 856.142C212.908 812.561 274.192 808.886 305.551 841.055C336.91 873.224 331.675 934.394 286.969 977.975Z" fill="#D1B300" stroke="black" stroke-width="21"/>
<path d="M262.145 292.902C376.825 233.499 675.49 150.335 952.703 292.902" stroke="black" stroke-width="20"/>
<path d="M526.434 490.815C526.434 454.496 490.075 425.054 445.225 425.054C400.374 425.054 364.016 454.496 364.016 490.815" stroke="black" stroke-width="24" stroke-linecap="round"/>
<path d="M852.383 490.815C852.383 454.496 816.024 425.054 771.174 425.054C726.323 425.054 689.965 454.496 689.965 490.815" stroke="black" stroke-width="24" stroke-linecap="round"/>
<path d="M608.456 639.359L608.457 1056.1" stroke="black" stroke-width="20" stroke-linecap="round"/>
<path d="M599.287 638.347L39.5953 523.905C33.4933 522.658 28.3687 528.554 30.4547 534.422L146.916 862.068C148.751 867.23 155.114 869.062 159.413 865.665L199.725 833.814C200.829 832.942 202.142 832.377 203.533 832.174L266.899 822.957C269.092 822.638 271.318 823.243 273.048 824.627L314.704 857.951C316.384 859.296 317.452 861.261 317.666 863.402L322.74 914.134C322.891 915.645 322.608 917.169 321.925 918.526L294.343 973.334C292.009 977.973 294.643 983.571 299.705 984.729L595.9 1052.48C600.909 1053.63 605.684 1049.82 605.684 1044.68V646.185C605.684 642.384 603.01 639.108 599.287 638.347Z" fill="black" fill-opacity="0.42"/>
<path d="M1107.94 196.512L407.575 80.1965L17.7935 229.922V260.857L231.864 338.813L335.805 217.548L480.581 147.016L630.307 129.693L786.219 164.34L874.074 217.548L987.915 338.813L1197.04 260.857V236.109L1107.94 196.512Z" fill="black" fill-opacity="0.26"/>
<path d="M370.845 590.953C258.972 517.993 298.897 342.684 332.844 264.15L260.26 297.587L194.053 414.584L165.938 550.626L370.845 590.953Z" fill="black" fill-opacity="0.17"/>
<path d="M585.809 1123.05C494.076 1097.76 488.085 1052.18 496.556 1032.55L393.046 1007.14V1064.78L440.152 1117.47L482.3 1123.05L496.556 1176.35L551.099 1206.1L603.164 1201.14C575.396 1189.74 580.024 1144.33 585.809 1123.05Z" fill="black" fill-opacity="0.29"/>
<path d="M919.208 318.611C910.602 312.458 895.023 306.216 880.267 301.238C872.563 298.639 866.915 308.071 872.27 314.19C948.16 400.921 956.292 480.316 948.485 521.629C947.27 528.059 953.231 534.316 959.538 532.569L985.864 525.279C988.83 524.457 991.085 522.017 991.49 518.966C1000.66 449.871 949.026 358.786 920.785 320.186C920.335 319.571 919.828 319.054 919.208 318.611Z" fill="white"/>
<ellipse cx="1132.21" cy="244.586" rx="25.6826" ry="10.2051" fill="black"/>
<path d="M1132.21 254.791L1132.21 435.862" stroke="black" stroke-width="30" stroke-linecap="round"/>
<circle cx="1132.21" cy="446.248" r="33.2056" fill="#F78A26" stroke="black" stroke-width="18"/>
</svg>
