<svg width="421" height="298" viewBox="0 0 421 298" fill="none" xmlns="http://www.w3.org/2000/svg">
<path d="M32.4369 104.793C32.4369 106.791 32.4369 109.038 32.4369 111.534C32.5083 114.031 32.5439 116.635 32.5439 119.345C32.5439 121.985 32.5439 124.624 32.5439 127.263C32.5439 129.831 32.5083 132.221 32.4369 134.432C32.3656 135.502 32.2586 136.679 32.1159 137.963C31.9733 139.176 31.6879 140.317 31.2599 141.387C30.8319 142.457 30.1543 143.349 29.2269 144.062C28.3709 144.704 27.1939 144.99 25.6959 144.918C23.4846 144.776 21.8796 143.813 20.8809 142.029C19.9536 140.246 19.4186 137.749 19.2759 134.539C19.2759 132.899 19.2403 131.008 19.1689 128.868C19.1689 126.728 19.1333 124.553 19.0619 122.341C19.0619 120.13 19.0619 117.99 19.0619 115.921C19.0619 113.781 19.0619 111.855 19.0619 110.143C19.0619 109.145 19.0263 107.932 18.9549 106.505C18.9549 105.079 18.9906 103.616 19.0619 102.118C19.1333 100.62 19.3116 99.1937 19.5969 97.8384C19.8823 96.4117 20.3459 95.2347 20.9879 94.3074C21.4873 93.7367 22.2006 93.3087 23.1279 93.0234C24.0553 92.6667 25.0183 92.4884 26.0169 92.4884C27.0869 92.4884 28.0856 92.6667 29.0129 93.0234C30.0116 93.38 30.7249 93.8794 31.1529 94.5214C31.4383 94.9494 31.6523 95.5557 31.7949 96.3404C31.9376 97.125 32.0446 98.0167 32.1159 99.0154C32.2586 99.9427 32.3299 100.941 32.3299 102.011C32.4013 103.01 32.4369 103.937 32.4369 104.793ZM28.3709 83.1794C26.1596 83.75 24.3049 83.536 22.8069 82.5374C21.3803 81.4674 20.4886 79.898 20.1319 77.8294C19.8466 76.3314 19.9536 75.0117 20.4529 73.8704C20.9523 72.729 21.7013 71.873 22.6999 71.3024C23.6986 70.6604 24.8399 70.375 26.1239 70.4464C27.4079 70.5177 28.6919 71.017 29.9759 71.9444C31.1886 72.8004 32.0446 73.799 32.5439 74.9404C33.1146 76.0817 33.2929 77.1874 33.0789 78.2574C32.9363 79.3274 32.4726 80.326 31.6879 81.2534C30.9033 82.1094 29.7976 82.7514 28.3709 83.1794ZM43.0951 107.147C43.0951 105.507 43.0595 103.759 42.9881 101.904C42.9881 100.05 43.3091 98.3734 43.9511 96.8754C44.5218 95.52 45.4491 94.557 46.7331 93.9864C48.0885 93.3444 49.4081 93.2017 50.6921 93.5584C51.9761 93.7724 52.9748 94.1647 53.6881 94.7354C54.4015 95.306 54.9008 95.9837 55.1861 96.7684C55.5428 97.4817 55.7568 98.3377 55.8281 99.3364C55.8995 100.264 55.9708 101.191 56.0421 102.118C56.7555 100.834 57.6471 99.8 58.7171 99.0154C59.7871 98.2307 60.8928 97.5887 62.0341 97.0894C63.1755 96.59 64.2455 96.2334 65.2441 96.0194C66.3141 95.8054 67.1345 95.6984 67.7051 95.6984C70.4158 95.6984 73.0908 96.3047 75.7301 97.5174C78.4408 98.6587 80.6878 100.299 82.4711 102.439C83.4698 103.723 84.2188 105.079 84.7181 106.505C85.2888 107.861 85.6811 109.287 85.8951 110.785C86.1805 112.283 86.3588 113.817 86.4301 115.386C86.5015 116.884 86.5728 118.418 86.6441 119.987C87.0008 124.553 87.0008 129.082 86.6441 133.576C86.5728 134.504 86.5371 135.574 86.5371 136.786C86.5371 137.999 86.4301 139.212 86.2161 140.424C86.0735 141.566 85.7525 142.6 85.2531 143.527C84.8251 144.383 84.0761 144.918 83.0061 145.132C81.5081 145.489 80.2598 145.56 79.2611 145.346C78.3338 145.204 77.5848 144.883 77.0141 144.383C76.4435 143.884 76.0155 143.242 75.7301 142.457C75.4448 141.673 75.1951 140.781 74.9811 139.782C74.8385 138.998 74.6958 138.106 74.5531 137.107C74.4818 136.037 74.4105 134.967 74.3391 133.897C74.3391 132.827 74.3035 131.793 74.2321 130.794C74.2321 129.724 74.2321 128.761 74.2321 127.905C74.2321 126.55 74.1965 125.052 74.1251 123.411C74.0538 121.771 74.0538 120.237 74.1251 118.81C74.1251 115.458 73.2335 112.925 71.4501 111.213C69.7381 109.43 67.3841 108.681 64.3881 108.966C62.1055 109.252 60.1081 110.179 58.3961 111.748C56.6841 113.246 55.8638 115.208 55.9351 117.633C55.9351 118.561 55.9351 119.417 55.9351 120.201C55.9351 120.986 55.8995 121.771 55.8281 122.555C55.8281 123.34 55.8281 124.196 55.8281 125.123C55.8281 126.051 55.8281 127.085 55.8281 128.226C55.8281 130.58 55.8281 133.077 55.8281 135.716C55.8281 138.284 55.5071 140.389 54.8651 142.029C54.2945 143.741 53.3315 144.918 51.9761 145.56C50.6208 146.202 49.0158 146.024 47.1611 145.025C46.3765 144.597 45.7345 144.027 45.2351 143.313C44.8071 142.529 44.4505 141.708 44.1651 140.852C43.9511 139.996 43.8085 139.14 43.7371 138.284C43.6658 137.357 43.5945 136.501 43.5231 135.716C43.3091 133.362 43.1665 131.187 43.0951 129.189C43.0951 127.121 43.0951 124.909 43.0951 122.555V107.147Z" fill="white"/>
<path d="M114.122 96.9824C116.476 95.841 118.937 95.0207 121.505 94.5214C124.073 94.022 126.605 93.915 129.102 94.2004C131.67 94.4857 134.131 95.1634 136.485 96.2334C138.91 97.3034 141.122 98.8014 143.119 100.727C144.76 102.368 146.186 104.365 147.399 106.719C148.612 109.002 149.503 111.249 150.074 113.46C151.287 117.384 151.465 121.343 150.609 125.337C149.753 129.332 148.291 133.041 146.222 136.465C145.223 138.035 143.975 139.461 142.477 140.745C141.05 141.958 139.517 142.957 137.876 143.741C135.736 144.74 133.418 145.418 130.921 145.774C128.424 146.202 125.999 146.309 123.645 146.095C119.365 145.881 115.584 144.811 112.303 142.885C109.093 140.959 106.489 138.498 104.492 135.502C102.566 132.506 101.282 129.118 100.64 125.337C100.069 121.485 100.319 117.562 101.389 113.567C102.53 109.287 104.171 105.828 106.311 103.188C108.522 100.478 111.126 98.409 114.122 96.9824ZM117.332 111.32C116.262 112.319 115.442 113.567 114.871 115.065C114.3 116.563 113.944 118.133 113.801 119.773C113.658 121.343 113.765 122.948 114.122 124.588C114.55 126.158 115.192 127.584 116.048 128.868C116.761 129.938 118.045 130.83 119.9 131.543C121.755 132.257 123.681 132.685 125.678 132.827C127.961 132.97 129.958 132.364 131.67 131.008C133.382 129.582 134.666 127.834 135.522 125.765C136.449 123.697 136.877 121.45 136.806 119.024C136.735 116.599 136.093 114.388 134.88 112.39C134.024 110.964 132.811 109.929 131.242 109.287C129.744 108.574 128.139 108.217 126.427 108.217C124.786 108.146 123.146 108.396 121.505 108.966C119.864 109.466 118.473 110.25 117.332 111.32Z" fill="white"/>
<path d="M286.595 90.9244L270.125 91.9004L266.831 115.812C266.262 119.96 265.205 123.742 263.659 127.158C262.195 130.574 260.528 133.543 258.657 136.064C256.868 138.504 255.16 140.375 253.533 141.676C251.988 142.978 250.809 143.628 249.995 143.628C248.938 143.628 247.962 143.181 247.067 142.286C246.254 141.31 245.847 140.294 245.847 139.236C245.847 138.504 246.132 137.894 246.701 137.406C249.955 134.885 252.761 131.957 255.119 128.622C257.478 125.288 259.064 120.733 259.877 114.958L263.171 92.2664L259.145 92.5104C257.112 92.5917 255.119 92.7951 253.167 93.1204C251.297 93.3644 249.914 93.5271 249.019 93.6084H248.897C247.84 93.6084 246.945 92.9984 246.213 91.7784C245.481 90.5584 245.115 89.4197 245.115 88.3624C245.115 87.2237 245.563 86.6544 246.457 86.6544H251.459C252.598 86.6544 253.818 86.6544 255.119 86.6544C256.502 86.6544 257.803 86.6137 259.023 86.5324L297.087 84.3364C298.958 84.1737 300.869 84.0111 302.821 83.8484C304.773 83.6857 306.237 83.5231 307.213 83.3604H307.579C308.555 83.3604 309.369 83.9704 310.019 85.1904C310.751 86.3291 311.117 87.4271 311.117 88.4844C311.117 89.7044 310.67 90.3144 309.775 90.3144C309.125 90.3144 308.067 90.3144 306.603 90.3144C305.139 90.2331 303.594 90.1924 301.967 90.1924C301.154 90.1924 300.341 90.1924 299.527 90.1924C298.714 90.1924 297.941 90.2331 297.209 90.3144L293.671 90.5584L288.669 125.328C288.507 126.467 288.385 127.524 288.303 128.5C288.222 129.395 288.181 130.208 288.181 130.94C288.181 133.055 288.507 134.519 289.157 135.332C289.889 136.146 291.028 136.552 292.573 136.552C294.037 136.552 295.867 136.268 298.063 135.698C300.341 135.048 302.252 134.112 303.797 132.892C305.18 131.916 306.197 131.428 306.847 131.428C307.579 131.428 307.945 131.876 307.945 132.77C307.945 133.746 307.213 135.048 305.749 136.674C304.285 138.301 302.333 139.765 299.893 141.066C297.453 142.368 294.688 143.018 291.597 143.018C287.937 143.018 285.294 142.042 283.667 140.09C282.041 138.057 281.227 135.007 281.227 130.94C281.227 129.964 281.268 128.948 281.349 127.89C281.431 126.752 281.553 125.572 281.715 124.352L286.595 90.9244Z" fill="white"/>
<path d="M91.9631 83.8944C91.6831 84.3237 91.3471 84.5851 90.9551 84.6784C90.5817 84.7717 90.2177 84.7437 89.8631 84.5944C89.5084 84.4451 89.2097 84.2024 88.9671 83.8664C88.7431 83.5117 88.6497 83.1104 88.6871 82.6624C88.7057 82.3637 88.7804 82.0371 88.9111 81.6824C89.0417 81.3277 89.2004 80.9917 89.3871 80.6744C89.5924 80.3384 89.8071 80.0304 90.0311 79.7504C90.2737 79.4517 90.5164 79.1997 90.7591 78.9944C91.2071 78.6397 91.7111 78.3317 92.2711 78.0704C92.8497 77.8091 93.4471 77.6131 94.0631 77.4824C94.6977 77.3517 95.3231 77.2957 95.9391 77.3144C96.5737 77.3331 97.1617 77.4264 97.7031 77.5944C99.1964 78.0611 100.354 78.7984 101.175 79.8064C101.996 80.8144 102.407 82.1211 102.407 83.7264C102.407 84.4917 102.332 85.1824 102.183 85.7984C102.052 86.3957 101.81 86.9744 101.455 87.5344C101.119 88.0944 100.662 88.6637 100.083 89.2424C99.5231 89.8211 98.8231 90.4557 97.9831 91.1464C97.7031 91.3891 97.4137 91.6317 97.1151 91.8744C96.8164 92.1171 96.5177 92.3597 96.2191 92.6024C96.1257 92.6771 95.9484 92.7891 95.6871 92.9384C95.4257 93.0877 95.1924 93.2371 94.9871 93.3864C94.7817 93.5357 94.6604 93.6757 94.6231 93.8064C94.5857 93.9371 94.7351 94.0117 95.0711 94.0304C95.4817 94.0677 95.8084 94.0771 96.0511 94.0584C96.2937 94.0397 96.6204 94.0304 97.0311 94.0304C97.5164 94.0304 97.9924 94.0211 98.4591 94.0024C98.9257 93.9837 99.3924 93.9931 99.8591 94.0304C100.046 94.0491 100.251 94.0584 100.475 94.0584C100.699 94.0397 100.923 94.0397 101.147 94.0584C101.371 94.0584 101.586 94.0864 101.791 94.1424C101.996 94.1797 102.174 94.2637 102.323 94.3944C102.472 94.5251 102.584 94.7024 102.659 94.9264C102.734 95.1504 102.771 95.3931 102.771 95.6544C102.79 95.8971 102.771 96.1397 102.715 96.3824C102.659 96.6064 102.566 96.7837 102.435 96.9144C102.192 97.1944 101.894 97.3344 101.539 97.3344C101.184 97.3157 100.848 97.3064 100.531 97.3064H90.4791C90.2924 97.3064 90.0871 97.3157 89.8631 97.3344C89.6577 97.3531 89.4711 97.3344 89.3031 97.2784C88.9671 97.1851 88.7991 97.0077 88.7991 96.7464C88.8177 96.4851 88.8271 96.2144 88.8271 95.9344C88.8271 95.4677 88.9391 95.0384 89.1631 94.6464C89.3871 94.2357 89.6671 93.8624 90.0031 93.5264C90.3577 93.1717 90.7311 92.8451 91.1231 92.5464C91.5151 92.2477 91.8791 91.9584 92.2151 91.6784C92.7004 91.2491 93.2231 90.8197 93.7831 90.3904C94.3431 89.9611 94.8751 89.5317 95.3791 89.1024C96.0324 88.5611 96.5831 88.0664 97.0311 87.6184C97.4977 87.1704 97.8711 86.7504 98.1511 86.3584C98.4311 85.9664 98.6364 85.5837 98.7671 85.2104C98.8977 84.8184 98.9631 84.4077 98.9631 83.9784C98.9631 83.0264 98.6737 82.2984 98.0951 81.7944C97.5164 81.2717 96.7791 81.0104 95.8831 81.0104C95.2297 81.0104 94.6137 81.1504 94.0351 81.4304C93.4751 81.7104 93.0084 82.1211 92.6351 82.6624C92.5231 82.8677 92.4111 83.0824 92.2991 83.3064C92.2057 83.5117 92.0937 83.7077 91.9631 83.8944Z" fill="white"/>
<path d="M156.039 97.5304L183.048 138.838L207.409 97.5304L236.536 138.838" stroke="white" stroke-width="9" stroke-linecap="round" stroke-linejoin="round"/>
<path d="M208.675 122.299C206.466 122.299 204.675 124.09 204.675 126.299C204.675 128.508 206.466 130.299 208.675 130.299V122.299ZM208.675 130.299H227.289V122.299H208.675V130.299Z" fill="white"/>
<circle cx="291.252" cy="70.1684" r="8.1452" fill="white"/>
<rect x="323.465" y="88.5542" width="82.9978" height="47.2839" rx="23.6419" stroke="white" stroke-width="6"/>
<circle cx="382.013" cy="112.196" r="15.0098" fill="white"/>
<path d="M31.7786 168.494L40.1575 170.145C41.5963 170.145 44.0507 171.372 47.5208 173.826H48.0286C48.1132 170.526 48.4094 168.875 48.9172 168.875C51.4563 169.806 52.9797 170.272 53.4875 170.272H56.0266L58.0579 170.145L58.3118 170.526L58.1848 171.287V187.537C58.1848 188.468 57.8886 189.23 57.2961 189.823C57.9732 190.5 58.3118 191.134 58.3118 191.727C58.3118 192.319 58.0579 193.039 57.55 193.885L57.9309 196.043C57.9309 197.059 57.677 197.567 57.1692 197.567L53.8684 197.059H53.7415L51.9641 197.567H51.7102C51.3717 197.567 50.8215 195.747 50.0598 192.108C50.0598 190.923 49.552 189.865 48.5364 188.934C47.4361 187.326 46.886 186.226 46.886 185.633L47.6477 185.379V185.252C46.3782 184.237 45.6165 183.094 45.3625 181.824C41.8925 178.354 38.9303 176.619 36.4758 176.619H35.5872C34.6562 176.619 30.4244 177.508 22.8918 179.285C22.2148 179.793 21.1145 181.401 19.5911 184.11C17.983 186.226 17.179 188.257 17.179 190.203C17.6868 195.62 18.3639 198.328 19.2102 198.328C20.3105 201.206 21.6223 202.941 23.1458 203.533C23.3997 203.957 24.4153 204.38 26.1926 204.803C27.3775 205.903 29.8743 207.257 33.6829 208.865C33.6829 209.204 34.106 209.416 34.9524 209.5L36.4758 208.992C37.1529 209.162 37.4915 209.331 37.4915 209.5V209.627L36.9836 210.135V210.516C38.1685 211.955 39.6073 212.674 41.3 212.674V212.547L38.8879 210.516V210.389C39.6497 210.389 42.358 211.87 47.0129 214.832C54.0377 221.349 57.55 225.496 57.55 227.274C58.7349 232.436 59.3274 235.653 59.3274 236.922C58.5657 243.354 57.8463 246.571 57.1692 246.571L54.1223 251.903C48.2825 255.457 44.8547 257.235 43.8391 257.235C34.106 255.119 27.6314 253.426 24.4153 252.156C17.8137 245.978 14.5129 242.339 14.5129 241.239L14.0051 240.858L13.7512 240.985V241.619V248.729C13.7512 249.321 12.2278 249.617 9.18091 249.617H6.89575L4.99146 250.252C4.39901 250.252 3.63729 249.787 2.7063 248.856V248.729L3.34106 247.713C3.93351 233.494 4.65291 226.385 5.49927 226.385H5.75317L8.03833 226.766C8.46151 226.766 8.88468 226.639 9.30786 226.385L10.9583 226.766L11.8469 226.512H12.3547C12.6933 226.681 13.455 227.908 14.6399 230.194C17.856 234.256 20.7336 238.149 23.2727 241.873C23.6112 241.873 24.6692 243.016 26.4465 245.301L34.3176 248.729H36.6028V249.237H36.8567L37.4915 248.856H37.7454C38.4224 249.364 39.0572 249.617 39.6497 249.617H40.4114C42.6965 249.533 43.8391 249.237 43.8391 248.729V248.475H41.3L39.7766 248.348C39.8612 248.009 42.8658 247.375 48.7903 246.444C50.1444 246.444 51.4563 244.074 52.7258 239.334C52.7258 237.811 53.1067 236.711 53.8684 236.033V235.526C52.4296 231.04 50.8215 228.12 49.0442 226.766C48.0286 224.989 44.1777 222.915 37.4915 220.545C33.0904 218.852 29.5357 216.864 26.8274 214.578C22.8495 213.393 20.5644 212.082 19.9719 210.643C19.4641 209.543 17.5175 207.723 14.1321 205.184C12.6086 200.529 10.9583 196.932 9.18091 194.393C8.24992 190.669 7.78442 186.733 7.78442 182.586C8.46151 179.793 11.5084 175.942 16.925 171.033C20.0566 169.341 25.0077 168.494 31.7786 168.494ZM16.925 172.938H18.4485C19.1256 172.938 22.2571 172.218 27.843 170.78C29.8743 170.441 30.8899 170.102 30.8899 169.764L30.3821 169.637C21.4107 170.399 16.925 171.499 16.925 172.938ZM50.4407 171.287L50.3137 171.795V172.176C50.3137 172.684 50.6523 172.938 51.3293 172.938H53.4875V172.811C52.6412 171.795 51.6256 171.287 50.4407 171.287ZM20.7336 177.635H20.9875C21.8339 177.635 23.8228 176.873 26.9543 175.35L30.3821 174.08V174.207L30.0012 174.969H31.0168L31.7786 174.715V174.207L31.5247 173.826V173.065H31.2708C27.8853 174.08 25.0924 175.138 22.8918 176.239C21.453 176.492 20.7336 176.958 20.7336 177.635ZM42.1887 174.08H40.0305C40.0305 174.25 41.3 174.673 43.8391 175.35H44.4739L44.7278 175.223V174.969C44.4739 174.377 43.6275 174.08 42.1887 174.08ZM50.9485 174.207L50.6946 174.715V174.969L50.8215 175.731H51.2024L51.5833 175.35V174.715L51.2024 174.207H50.9485ZM17.5598 175.985V176.112C17.5598 176.365 17.7291 176.492 18.0676 176.492C18.4908 176.323 18.787 176.027 18.9563 175.604V175.35C18.1946 175.35 17.7291 175.561 17.5598 175.985ZM46.3782 176.619L47.0129 177.254H47.6477L48.0286 176.873V176.492C48.0286 176.239 47.69 175.985 47.0129 175.731C46.5898 175.9 46.3782 176.196 46.3782 176.619ZM52.8528 178.397L53.2336 178.651V178.778L52.7258 179.412V179.793C52.7258 179.962 53.0644 180.174 53.7415 180.428C53.9107 181.105 54.1646 181.486 54.5032 181.571H54.884V181.063L54.7571 180.682V180.174H55.1379L55.7727 180.682H56.0266L56.1536 179.92V179.666C55.5611 177.296 55.1379 176.112 54.884 176.112H54.1223C53.276 176.45 52.8528 177.212 52.8528 178.397ZM16.7981 181.571L17.5598 182.332H17.8137C18.8293 182.163 19.7603 181.613 20.6067 180.682L20.2258 180.428H18.8293C17.8984 180.428 17.2213 180.809 16.7981 181.571ZM11.2122 180.555L10.8313 180.936V181.063H11.4661V180.555H11.2122ZM14.6399 186.522V186.649H14.8938C16.4172 185.21 17.179 183.94 17.179 182.84L16.7981 182.459C15.7825 182.459 15.0631 183.813 14.6399 186.522ZM56.0266 182.84H55.3918V183.094C55.6458 183.602 55.8997 183.856 56.1536 183.856V183.348L56.0266 182.84ZM54.7571 183.729L54.3762 184.11H54.7571V183.729ZM52.7258 184.364L52.218 184.744V184.871L52.7258 185.379H53.2336L53.7415 184.871V184.744L53.2336 184.364H52.7258ZM55.6458 185.633L55.1379 186.014V186.903L55.2649 187.791H55.6458L56.0266 185.633H55.6458ZM52.9797 187.791H52.7258V188.045L52.9797 188.426H53.4875V188.045L52.9797 187.791ZM52.5989 191.219V193.25L52.8528 193.504H52.9797C53.6568 193.504 54.0377 193.208 54.1223 192.615C53.6991 191.6 53.4875 190.753 53.4875 190.076H53.2336C52.8105 190.246 52.5989 190.627 52.5989 191.219ZM53.2336 195.281L52.8528 195.662L53.4875 196.043H53.8684L53.9954 195.662L53.4875 195.281H53.2336ZM14.1321 200.74V201.629L14.6399 202.137H15.6555V201.629C15.0631 201.037 14.5553 200.74 14.1321 200.74ZM16.5442 204.168H16.4172V204.803C18.1946 206.073 19.3795 206.707 19.9719 206.707H20.4797V206.199C19.2948 205.353 17.983 204.676 16.5442 204.168ZM32.4133 208.485H31.2708C31.3554 208.823 31.6939 208.992 32.2864 208.992H32.7942V208.865L32.4133 208.485ZM33.6829 210.389L33.302 210.643C33.6405 211.151 35.037 211.955 37.4915 213.055V212.547C36.3066 211.447 35.037 210.727 33.6829 210.389ZM36.6028 218.006H35.968V218.641C37.0683 219.149 38.4224 219.445 40.0305 219.53C40.0305 219.868 40.3267 220.037 40.9192 220.037H41.9348V219.91C41.9348 219.149 40.1575 218.514 36.6028 218.006ZM45.1086 221.434H44.7278V221.815L45.1086 222.196H45.3625V221.815L45.1086 221.434ZM6.89575 234.51H6.38794C5.96476 235.78 5.75317 237.388 5.75317 239.334L6.00708 240.985H6.13403C6.89575 240.985 7.27661 240.646 7.27661 239.969C7.02271 238.022 6.89575 236.203 6.89575 234.51ZM9.56177 238.192C9.13859 239.63 8.6731 240.561 8.16528 240.985L8.6731 242.381V245.682V246.444C8.6731 247.036 8.84237 247.332 9.18091 247.332H9.94263L10.3235 246.951V246.444C10.3235 240.942 10.0696 238.192 9.56177 238.192ZM16.5442 241.365H16.4172V241.619C16.7558 242.974 17.3905 243.651 18.3215 243.651V243.397C17.7291 242.043 17.1366 241.365 16.5442 241.365ZM6.13403 244.158L6.38794 244.412H6.51489C6.7688 244.412 6.98039 243.566 7.14966 241.873L6.89575 241.619C6.55721 241.619 6.3033 242.466 6.13403 244.158ZM20.9875 242.508H20.7336V242.635C21.4107 243.905 22.0878 244.539 22.7649 244.539V244.158C22.0878 243.397 21.4954 242.847 20.9875 242.508ZM53.8684 244.666L53.2336 245.301L53.7415 245.809H54.3762L54.884 245.301V245.047L54.5032 244.666H53.8684ZM28.4778 247.586V247.713C28.6471 248.136 28.9433 248.348 29.3665 248.348C29.1972 247.84 28.901 247.586 28.4778 247.586ZM22.384 247.84L21.4954 247.713V247.84C22.3417 249.702 24.4576 251.141 27.843 252.156C30.636 253.172 34.5715 254.23 39.6497 255.33C40.6653 256.007 41.554 256.388 42.3157 256.473H43.4583C45.5741 255.88 46.6321 255.119 46.6321 254.188L35.2063 253.299C28.5201 251.183 24.246 249.364 22.384 247.84ZM44.7278 251.522V251.776L45.1086 252.03H45.7434C48.7903 252.03 50.483 251.606 50.8215 250.76L50.3137 250.506H49.552C48.621 250.506 47.0129 250.845 44.7278 251.522ZM40.9192 254.696V254.188H41.1731C41.7655 254.188 42.0618 254.357 42.0618 254.696H41.6809H40.9192ZM97.7942 171.922H98.9368C103.084 171.922 107.654 173.403 112.648 176.365C115.356 178.82 117.006 180.047 117.599 180.047H118.361C119.038 179.624 119.376 179.158 119.376 178.651V178.397L118.741 176.492C118.741 176.154 119.038 175.942 119.63 175.858C120.138 176.027 120.603 176.365 121.027 176.873H121.281V176.492C121.281 175.561 120.646 174.546 119.376 173.446C119.715 173.192 120.603 173.065 122.042 173.065C122.381 173.065 123.904 173.911 126.613 175.604C127.205 175.604 127.501 175.9 127.501 176.492V188.426C127.501 194.012 127.078 197.228 126.232 198.074L126.105 198.455L126.486 198.963V199.09C126.486 200.36 124.624 200.994 120.9 200.994C120.053 201.418 119.503 201.629 119.249 201.629H118.741C118.741 200.275 117.768 197.863 115.822 194.393C114.383 188.807 113.029 185.506 111.759 184.49C110.405 182.882 106.596 181.571 100.333 180.555L96.6516 180.174L91.7004 180.682L90.8118 179.793C89.2883 179.962 86.58 181.782 82.6868 185.252L82.4329 186.268V186.522H82.9407C86.4107 183.644 88.9075 181.824 90.4309 181.063V181.317C88.3997 183.517 84.6757 186.352 79.259 189.823C76.9739 191.515 75.2389 193.843 74.054 196.805C71.9381 201.629 70.8801 206.369 70.8801 211.024C70.8801 219.064 71.8534 224.904 73.8 228.543C77.1855 237.768 81.0787 244.328 85.4797 248.221C91.1503 251.352 96.5247 252.918 101.603 252.918H103.634C106.173 252.918 108.924 251.987 111.886 250.125C112.902 248.179 115.144 245.809 118.615 243.016C121.492 240.731 122.931 238.869 122.931 237.43V237.049L122.804 233.621C122.804 233.367 123.312 232.902 124.327 232.225C124.327 231.886 124.539 231.59 124.962 231.336H125.343L128.39 231.844H130.548C131.225 231.844 131.564 232.436 131.564 233.621C132.41 237.515 132.833 240.434 132.833 242.381C132.833 246.698 132.283 250.252 131.183 253.045V253.426L131.31 254.315L130.675 255.33V255.584C130.675 255.753 131.394 255.965 132.833 256.219V256.473L124.454 260.535H124.2C122.846 258.758 121.788 256.684 121.027 254.315L120.9 254.188C119.799 254.611 117.895 255.669 115.187 257.362C108.501 260.155 104.396 261.551 102.872 261.551L95.2551 259.266L93.7317 259.012H92.97L91.3196 259.52C89.373 259.52 86.2415 258.631 81.925 256.854C78.455 256.007 75.4928 253.68 73.0383 249.871C67.1139 241.323 64.1516 234.722 64.1516 230.067C63.3899 227.02 63.009 224.692 63.009 223.084C63.0937 222.238 63.6438 221.815 64.6594 221.815L64.9133 222.957V223.592H65.4211L65.929 223.211V222.703C65.929 221.603 64.9556 220.841 63.009 220.418C62.7551 220.418 62.5859 215.806 62.5012 206.58C62.5012 204.549 63.6438 200.783 65.929 195.281C66.0982 195.281 66.3098 194.054 66.5637 191.6C66.9023 191.515 67.2408 190.542 67.5793 188.68C70.1184 185.802 73.2499 183.136 76.9739 180.682C78.5819 179.158 81.0364 177.677 84.3372 176.239C90.6848 173.361 95.1705 171.922 97.7942 171.922ZM93.4778 174.715V175.096H93.7317C94.8319 175.011 95.3821 174.757 95.3821 174.334L95.0012 174.207H94.8743C94.0279 174.207 93.5624 174.377 93.4778 174.715ZM101.857 174.207H101.73V174.588L103.761 174.969H104.015L104.269 174.588C104.269 174.334 103.465 174.207 101.857 174.207ZM82.5598 178.778V179.031H82.6868C84.1256 178.693 85.776 177.889 87.6379 176.619V176.492L87.384 176.365H87.2571C85.3951 176.704 83.8293 177.508 82.5598 178.778ZM101.095 177.635C101.095 177.974 102.915 178.439 106.554 179.031L107.189 179.539H108.077L108.458 179.031V178.778C107.612 178.778 106.723 178.354 105.792 177.508C104.184 176.831 103.042 176.492 102.365 176.492C101.518 176.492 101.095 176.873 101.095 177.635ZM116.202 181.317H115.822V181.571C116.499 182.586 117.133 183.094 117.726 183.094H117.853L118.361 182.713V182.586C117.599 181.74 116.879 181.317 116.202 181.317ZM81.2903 183.983H81.6711C82.0097 183.898 82.2636 183.686 82.4329 183.348H82.179C81.8404 183.348 81.5442 183.559 81.2903 183.983ZM79.8938 185.633H80.4016L80.9094 185.252V184.744C80.2323 184.744 79.8938 185.041 79.8938 185.633ZM117.726 185.252L117.472 185.633V185.887L117.853 186.141L118.361 185.633L117.853 185.252H117.726ZM71.3879 188.68C72.4036 188.68 73.123 188.299 73.5461 187.537V187.156H73.0383C72.192 187.156 71.6418 187.664 71.3879 188.68ZM122.042 193.504L121.788 193.758V194.139L122.169 194.266L122.55 193.885L122.423 193.504H122.042ZM120.011 196.551V196.805C121.45 196.382 122.169 195.959 122.169 195.535C122 195.197 121.788 194.943 121.534 194.774H121.027C120.35 195.451 120.011 196.043 120.011 196.551ZM120.519 198.582L120.011 199.09V199.725H120.519C121.027 199.725 121.365 199.513 121.534 199.09V198.963L121.281 198.582H120.519ZM69.3567 204.168V204.422H69.7375L70.3723 203.914V203.026H69.8645C69.526 203.28 69.3567 203.66 69.3567 204.168ZM65.4211 205.438H65.1672L64.6594 207.342V208.485H64.9133C65.2519 208.485 65.4211 208.061 65.4211 207.215V205.438ZM64.9133 209.754H64.4055V210.389H64.9133L65.1672 210.135L64.9133 209.754ZM68.3411 219.91V222.196C68.5103 224.227 69.6529 226.766 71.7688 229.813L72.0227 230.067H72.5305V229.432C70.9224 224.608 69.7799 219.783 69.1028 214.959H68.9758C68.5527 214.959 68.3411 216.61 68.3411 219.91ZM65.929 215.721H65.802L65.675 216.483V217.625L66.0559 218.133L66.4368 217.752V216.99C66.4368 216.229 66.2675 215.806 65.929 215.721ZM65.675 225.115H65.2942V225.496L65.802 225.877H65.929V225.496L65.675 225.115ZM68.595 230.194L68.2141 230.448C68.2141 230.955 68.4257 231.294 68.8489 231.463H68.9758L69.3567 231.336V230.955L68.595 230.194ZM68.468 233.621H68.3411V233.875C68.6796 235.737 69.1451 236.668 69.7375 236.668H69.8645C70.203 236.668 70.3723 236.499 70.3723 236.16L68.468 233.621ZM125.978 236.922L125.597 237.049V237.303L126.232 237.938H126.486C127.417 237.768 127.882 237.557 127.882 237.303V237.049L127.755 236.922H125.978ZM127.374 239.842V240.35C127.628 240.858 127.967 241.112 128.39 241.112C128.728 240.773 128.898 240.265 128.898 239.588V238.953C128.898 238.699 128.728 238.573 128.39 238.573C127.713 238.826 127.374 239.25 127.374 239.842ZM125.978 240.223L125.597 240.477V242.127L126.105 242.635H126.232L126.613 242.254V241.365C126.613 240.773 126.401 240.392 125.978 240.223ZM75.1965 241.492V241.619C76.5507 244.243 77.6933 245.555 78.6243 245.555V245.047C77.0162 242.847 75.8736 241.662 75.1965 241.492ZM71.0071 241.873L70.7532 242.254L71.0071 242.635H71.261L71.6418 242.254L71.261 241.873H71.0071ZM122.042 243.27L121.788 243.524V243.905H122.423L122.804 243.524V243.27H122.042ZM126.613 243.27H126.105V243.778H126.486L126.613 243.397V243.27ZM72.2766 243.905H72.1497V244.031C72.1497 244.285 72.4036 244.878 72.9114 245.809H73.5461V245.555C73.5461 244.962 73.123 244.412 72.2766 243.905ZM120.9 245.555V245.809H121.027L121.788 245.428V245.047H121.534C121.111 245.216 120.9 245.386 120.9 245.555ZM79.8938 246.19L79.5129 246.444C79.5129 247.544 80.317 248.263 81.925 248.602H82.179L82.6868 248.221C82.0097 247.29 81.0787 246.613 79.8938 246.19ZM126.993 246.444H126.866V247.332L127.247 247.713H127.374V246.698L126.993 246.444ZM74.5618 246.951H74.1809C74.858 248.898 75.7043 250.168 76.72 250.76H77.4817V249.871C76.8892 248.94 75.9159 247.967 74.5618 246.951ZM84.0833 250.506H83.3215V250.633C83.3215 250.887 84.4641 251.268 86.7493 251.776V251.522C86.3261 250.845 85.4374 250.506 84.0833 250.506ZM118.361 252.156V252.41C118.953 252.41 119.419 252.114 119.757 251.522V251.395H119.63C118.953 251.395 118.53 251.649 118.361 252.156ZM126.613 252.156L126.486 252.41L126.613 253.045L127.247 252.918V252.41L126.866 252.156H126.613ZM80.9094 253.807L80.6555 254.188C80.7402 254.526 82.5598 255.246 86.1145 256.346C86.1145 256.684 86.8339 256.854 88.2727 256.854L88.9075 256.6V256.473C88.8228 256.134 87.2571 255.373 84.2102 254.188C83.9563 253.934 83.2369 253.807 82.052 253.807H80.9094ZM87.0032 253.807L86.8762 253.934V254.188C89.0767 255.627 91.7851 256.346 95.0012 256.346H95.8899L96.1438 256.092C91.6581 254.569 88.6112 253.807 87.0032 253.807ZM97.2864 255.203C98.302 256.304 99.9947 256.854 102.365 256.854C105.157 256.6 106.554 256.177 106.554 255.584V255.33C106.554 254.907 105.496 254.696 103.38 254.696H101.476C98.6829 254.696 97.2864 254.865 97.2864 255.203ZM112.14 255.203L111.886 255.584H112.394L112.648 255.33L112.521 255.203H112.14ZM126.866 256.6L124.962 256.854V257.362L125.597 257.869H126.232C128.263 257.531 129.279 257.192 129.279 256.854V256.6H126.866ZM104.269 258.758L100.587 259.774V260.155L102.618 260.535H103.38C104.226 260.535 106.342 259.604 109.728 257.742V257.362H109.601C108.839 257.362 107.062 257.827 104.269 258.758ZM197.833 171.033C200.542 171.711 201.896 173.107 201.896 175.223L202.15 178.524C202.15 179.031 198.68 179.709 191.74 180.555L191.359 181.063V181.571C191.359 182.502 192.247 186.691 194.025 194.139V196.17L193.644 201.756C195.506 213.944 196.437 227.993 196.437 243.905H196.691C203.969 243.905 207.609 244.709 207.609 246.317C208.37 250.633 208.751 253.341 208.751 254.442C208.751 256.05 205.958 256.854 200.372 256.854H197.96L197.325 256.981L196.691 256.854H195.294C190.978 256.854 188.82 256.473 188.82 255.711C188.058 251.649 187.677 248.686 187.677 246.824V244.92L188.185 242.127V241.873C187.677 239.842 187.423 238.446 187.423 237.684V236.795C187 228.501 186.788 222.746 186.788 219.53H186.534L160.255 218.895L159.747 219.53L159.874 224.608L159.747 238.953V243.27C159.747 245.386 160.001 247.544 160.509 249.744L159.747 252.156C160.255 253.172 160.509 253.934 160.509 254.442C160.509 256.896 158.859 258.123 155.558 258.123C149.887 258.123 146.29 257.615 144.767 256.6C141.635 255.753 140.07 254.484 140.07 252.791L141.085 247.332C141.424 247.078 142.016 246.951 142.863 246.951H146.163C148.195 246.951 149.21 246.698 149.21 246.19L149.337 244.92V238.699C149.337 224.904 149.041 214.409 148.448 207.215L148.575 201.629C148.237 201.629 147.814 195.366 147.306 182.84L146.29 182.459H146.163C139.392 182.459 136.007 182.078 136.007 181.317L134.738 178.397C134.738 176.365 138.123 175.35 144.894 175.35C148.787 175.096 152.384 174.969 155.685 174.969L157.335 175.35L156.7 177L157.081 177.889C156.489 178.481 156.193 179.074 156.193 179.666V180.428L158.351 206.453C158.351 207.892 158.689 208.612 159.366 208.612L185.9 209.5L186.154 208.992L185.646 202.518C185.646 202.01 185.9 201.333 186.407 200.487L185.9 199.852V199.598L186.154 199.09V198.836L185.646 195.281V191.219C184.969 186.479 184.461 183.856 184.122 183.348C183.361 183.348 182.472 180.767 181.456 175.604C181.71 173.573 181.922 172.557 182.091 172.557C188.693 172.134 193.94 171.626 197.833 171.033ZM184.63 174.207L184.376 174.461V174.715C184.461 175.054 184.757 175.223 185.265 175.223H185.9C186.661 175.223 187.085 175.054 187.169 174.715C187.085 174.377 186.746 174.207 186.154 174.207H184.63ZM185.9 176.619L185.646 177V177.254L185.9 177.508L186.407 177.254V176.619H185.9ZM137.911 178.397L137.657 177.889L137.404 178.143V178.397H137.911ZM153.907 184.871H153.654V185.252L153.907 185.633H154.415V185.252L153.907 184.871ZM150.734 185.76H150.099L149.972 187.283L150.099 187.918H150.734V186.776V186.649V185.76ZM191.74 195.789L191.359 196.043V196.424L191.74 196.678L192.12 196.424V196.043L191.74 195.789ZM191.613 198.836L191.74 199.344H192.12L192.247 198.963V197.821L192.12 197.567C191.782 197.567 191.613 197.99 191.613 198.836ZM150.988 209.373H150.734V209.881C150.734 210.474 150.903 210.812 151.241 210.897H151.368L151.749 210.643C151.749 210.05 151.495 209.627 150.988 209.373ZM159.24 211.151H158.986V211.405L159.366 211.785H159.747V211.658L159.24 211.151ZM177.521 211.151H173.331V211.405L176.759 211.785H177.521L177.775 211.405L177.521 211.151ZM151.241 211.912L150.988 212.166V212.42H151.241L151.622 212.039V211.912H151.241ZM178.917 215.594L179.044 215.721H180.822L181.329 215.34L181.202 215.086H180.187C179.425 215.086 179.002 215.255 178.917 215.594ZM187.677 223.338L187.423 223.719V224.1L187.804 224.481H188.058V223.719L187.677 223.338ZM187.677 225.242L187.423 225.496V226.893H187.677L188.058 226.639V225.496L187.677 225.242ZM191.613 240.985L190.978 240.477V241.365L191.232 241.619L191.613 241.365V240.985ZM157.335 240.858H156.827V240.985C156.912 241.577 157.081 241.873 157.335 241.873H157.716L157.335 240.858ZM148.195 250.506H147.687V250.76H148.195V250.506ZM158.097 252.537L157.589 253.172V253.299L157.97 253.807H158.097L158.859 253.172V252.918L158.478 252.537H158.097ZM205.831 254.061L205.577 254.188V254.696H206.339V254.188L205.958 254.061H205.831ZM202.15 254.188L201.642 254.696L201.896 255.203H202.531C203.123 255.203 203.462 255.034 203.546 254.696L203.292 254.188H202.15ZM243.156 168.367L251.154 167.606C257.247 168.706 260.971 169.637 262.325 170.399C268.419 174.207 272.059 177.72 273.243 180.936L277.687 187.664C278.787 192.404 279.887 199.048 280.988 207.596C280.31 218.26 279.295 224.269 277.941 225.623C277.01 229.178 275.656 232.987 273.878 237.049C269.816 245.428 266.98 250.421 265.372 252.03C261.987 254.992 258.982 256.473 256.359 256.473C255.174 256.727 254.581 257.108 254.581 257.615L248.995 259.774L248.234 259.647C244.594 260.155 241.759 260.408 239.728 260.408H238.077C237.231 260.408 234.015 259.351 228.429 257.235C226.99 256.727 225.17 255.246 222.97 252.791C221.193 251.522 220.304 250.295 220.304 249.11C217.934 245.809 215.649 240.392 213.448 232.86C212.517 230.321 212.052 228.839 212.052 228.416L211.925 226.385C211.925 212.505 213.956 202.306 218.019 195.789C219.373 193.927 220.558 190.669 221.573 186.014L226.144 180.174C226.144 177.974 229.487 174.8 236.173 170.653C236.173 170.229 238.501 169.468 243.156 168.367ZM260.294 170.78H259.786V171.541C262.325 173.065 263.849 173.826 264.357 173.826V173.573C262.495 171.711 261.141 170.78 260.294 170.78ZM255.47 171.922L255.089 172.303V172.43C257.967 174.461 261.31 175.985 265.118 177V176.746C264.526 175.985 263.426 175.308 261.818 174.715C261.818 174.292 260.548 173.657 258.009 172.811C257.501 172.218 256.824 171.922 255.978 171.922H255.47ZM239.855 175.477V175.731C240.193 175.731 242.309 175.011 246.202 173.573L247.726 173.065V172.43C245.61 172.43 242.986 173.446 239.855 175.477ZM221.447 215.848V226.512C221.447 233.875 223.351 238.615 227.159 240.731C230.968 244.539 233.38 246.444 234.396 246.444C236.935 246.444 239.008 247.248 240.616 248.856L241.759 249.11L243.156 248.856L244.298 249.998H244.425C244.933 249.998 245.568 249.533 246.329 248.602C250.223 248.009 252.889 247.121 254.327 245.936C260.252 240.011 263.214 236.711 263.214 236.033C266.769 227.57 268.546 222.238 268.546 220.037C270.577 212.251 272.059 208.358 272.99 208.358H273.243V207.596C273.243 206.58 272.693 204.972 271.593 202.772C271.001 196.001 270.197 191.854 269.181 190.33C267.404 185.506 262.833 181.232 255.47 177.508C252.931 176.323 251.407 175.731 250.9 175.731H250.011C246.202 177.423 244.129 178.27 243.79 178.27C243.536 178.27 243.409 178.608 243.409 179.285C238.67 182.502 235.835 184.617 234.904 185.633L228.683 193.631C227.159 195.578 225.848 197.99 224.747 200.867C222.547 205.946 221.447 210.939 221.447 215.848ZM226.017 186.649V186.776H226.271C232.365 181.444 235.411 178.481 235.411 177.889H235.284C233.422 177.889 231.391 179.497 229.191 182.713C228.767 182.713 228.09 183.179 227.159 184.11C226.398 184.11 226.017 184.956 226.017 186.649ZM266.642 178.27L266.134 178.778H267.15L266.642 178.27ZM236.681 180.809V180.936H237.062C239.432 180.343 240.616 179.624 240.616 178.778L240.363 178.524H239.982C237.781 179.031 236.681 179.793 236.681 180.809ZM263.849 179.92C263.849 180.936 265.034 181.951 267.404 182.967H267.911C268.165 182.967 268.292 182.755 268.292 182.332C268.292 181.655 266.811 180.851 263.849 179.92ZM271.72 183.602L271.339 184.11V184.617C271.339 185.295 272.609 187.918 275.148 192.489L273.878 187.156C273.878 184.787 273.243 183.602 271.974 183.602H271.72ZM223.986 187.283L223.732 187.664V187.918H224.366V187.283H223.986ZM223.478 188.807H223.097V189.188L223.478 188.934V188.807ZM226.271 191.473L225.255 192.489V192.996H225.763C226.271 192.996 226.525 192.531 226.525 191.6V191.473H226.271ZM276.29 195.916L275.529 195.281L275.402 195.535V195.662L275.782 197.059H276.29V195.916ZM222.081 199.344V200.106L222.589 200.487C222.589 200.063 223.139 198.878 224.24 196.932L224.366 195.916H223.986C223.139 196.678 222.504 197.821 222.081 199.344ZM273.243 211.151H272.609V211.658H272.863L273.243 211.278V211.151ZM275.782 212.42H275.529C275.19 213.69 275.021 215.128 275.021 216.737V216.864H275.148C275.656 216.779 275.909 216.356 275.909 215.594V213.182L275.782 212.42ZM277.814 220.291V220.799H278.322C278.829 219.022 279.083 217.668 279.083 216.737V216.356H278.702C278.195 216.356 277.898 217.668 277.814 220.291ZM270.704 220.291V221.053H271.339L271.72 219.91L271.466 218.641H271.339C270.916 218.641 270.704 219.191 270.704 220.291ZM267.531 232.86H267.784C268.377 232.86 268.927 231.548 269.435 228.924C270.281 227.485 270.704 225.581 270.704 223.211V222.83L270.577 222.449C269.816 222.449 268.927 225.412 267.911 231.336L267.784 231.59L267.531 232.86ZM217.511 226.512L217.13 226.766V226.893L217.511 227.274H217.638L218.019 226.893V226.766L217.638 226.512H217.511ZM213.829 228.416L213.448 228.924V229.94L213.702 230.194H213.956L214.21 229.432V228.797L213.829 228.416ZM264.865 235.906L265.118 236.922C262.664 240.138 261.437 241.916 261.437 242.254H262.325L262.452 242H262.579L262.706 242.254V242.381L256.866 247.205L256.74 247.586H256.866L256.993 247.84H257.247C258.94 247.248 260.929 245.809 263.214 243.524C265.33 240.815 266.557 238.403 266.896 236.287V235.906V235.018C266.896 234.425 266.684 234.045 266.261 233.875H266.007C265.584 233.875 265.203 234.552 264.865 235.906ZM218.4 236.795H218.273V238.065C218.273 239.08 218.823 239.969 219.923 240.731H220.304V240.477C220.304 239.292 219.669 238.065 218.4 236.795ZM261.818 252.03V252.537H261.945C265.245 250.337 266.896 248.686 266.896 247.586H266.388C264.441 249.11 262.918 250.591 261.818 252.03ZM247.218 249.364V249.617H248.615L248.995 249.11V248.856H248.615C247.768 248.856 247.303 249.025 247.218 249.364ZM234.904 249.237C234.904 249.829 235.496 250.337 236.681 250.76V250.633C236.681 249.956 236.088 249.49 234.904 249.237ZM226.525 251.141H226.271V251.649L226.652 251.903H227.032V251.649L226.525 251.141ZM248.741 254.696V255.203H249.503C252.212 254.526 253.566 253.638 253.566 252.537H253.439C252.762 252.537 251.196 253.257 248.741 254.696ZM243.79 252.918L241.886 253.172V253.807H243.79H246.583V253.553C246.583 253.214 246.033 253.003 244.933 252.918H243.79ZM239.093 253.045L238.712 253.299L239.982 253.807V253.553C239.897 253.214 239.601 253.045 239.093 253.045ZM256.993 254.315L256.74 254.696V255.203H257.247L257.755 254.696L257.247 254.315H256.993ZM227.413 255.457V255.711C227.413 256.134 228.852 256.769 231.73 257.615C235.284 258.716 237.697 259.266 238.966 259.266C240.997 259.266 244.087 258.8 248.234 257.869V257.615H245.822L237.189 257.996L231.73 256.092C230.037 255.669 228.598 255.457 227.413 255.457ZM315.9 168.367L323.898 167.606C329.991 168.706 333.715 169.637 335.07 170.399C341.163 174.207 344.803 177.72 345.988 180.936L350.431 187.664C351.531 192.404 352.631 199.048 353.732 207.596C353.055 218.26 352.039 224.269 350.685 225.623C349.754 229.178 348.4 232.987 346.622 237.049C342.56 245.428 339.725 250.421 338.116 252.03C334.731 254.992 331.726 256.473 329.103 256.473C327.918 256.727 327.325 257.108 327.325 257.615L321.74 259.774L320.978 259.647C317.338 260.155 314.503 260.408 312.472 260.408H310.822C309.975 260.408 306.759 259.351 301.173 257.235C299.734 256.727 297.915 255.246 295.714 252.791C293.937 251.522 293.048 250.295 293.048 249.11C290.678 245.809 288.393 240.392 286.193 232.86C285.262 230.321 284.796 228.839 284.796 228.416L284.669 226.385C284.669 212.505 286.7 202.306 290.763 195.789C292.117 193.927 293.302 190.669 294.318 186.014L298.888 180.174C298.888 177.974 302.231 174.8 308.917 170.653C308.917 170.229 311.245 169.468 315.9 168.367ZM333.038 170.78H332.531V171.541C335.07 173.065 336.593 173.826 337.101 173.826V173.573C335.239 171.711 333.885 170.78 333.038 170.78ZM328.214 171.922L327.833 172.303V172.43C330.711 174.461 334.054 175.985 337.863 177V176.746C337.27 175.985 336.17 175.308 334.562 174.715C334.562 174.292 333.292 173.657 330.753 172.811C330.245 172.218 329.568 171.922 328.722 171.922H328.214ZM312.599 175.477V175.731C312.937 175.731 315.053 175.011 318.947 173.573L320.47 173.065V172.43C318.354 172.43 315.73 173.446 312.599 175.477ZM294.191 215.848V226.512C294.191 233.875 296.095 238.615 299.904 240.731C303.712 244.539 306.124 246.444 307.14 246.444C309.679 246.444 311.753 247.248 313.361 248.856L314.503 249.11L315.9 248.856L317.042 249.998H317.169C317.677 249.998 318.312 249.533 319.073 248.602C322.967 248.009 325.633 247.121 327.072 245.936C332.996 240.011 335.958 236.711 335.958 236.033C339.513 227.57 341.29 222.238 341.29 220.037C343.322 212.251 344.803 208.358 345.734 208.358H345.988V207.596C345.988 206.58 345.437 204.972 344.337 202.772C343.745 196.001 342.941 191.854 341.925 190.33C340.148 185.506 335.577 181.232 328.214 177.508C325.675 176.323 324.152 175.731 323.644 175.731H322.755C318.947 177.423 316.873 178.27 316.534 178.27C316.281 178.27 316.154 178.608 316.154 179.285C311.414 182.502 308.579 184.617 307.648 185.633L301.427 193.631C299.904 195.578 298.592 197.99 297.491 200.867C295.291 205.946 294.191 210.939 294.191 215.848ZM298.761 186.649V186.776H299.015C305.109 181.444 308.156 178.481 308.156 177.889H308.029C306.167 177.889 304.135 179.497 301.935 182.713C301.512 182.713 300.835 183.179 299.904 184.11C299.142 184.11 298.761 184.956 298.761 186.649ZM339.386 178.27L338.878 178.778H339.894L339.386 178.27ZM309.425 180.809V180.936H309.806C312.176 180.343 313.361 179.624 313.361 178.778L313.107 178.524H312.726C310.525 179.031 309.425 179.793 309.425 180.809ZM336.593 179.92C336.593 180.936 337.778 181.951 340.148 182.967H340.656C340.909 182.967 341.036 182.755 341.036 182.332C341.036 181.655 339.555 180.851 336.593 179.92ZM344.464 183.602L344.083 184.11V184.617C344.083 185.295 345.353 187.918 347.892 192.489L346.622 187.156C346.622 184.787 345.988 183.602 344.718 183.602H344.464ZM296.73 187.283L296.476 187.664V187.918H297.111V187.283H296.73ZM296.222 188.807H295.841V189.188L296.222 188.934V188.807ZM299.015 191.473L297.999 192.489V192.996H298.507C299.015 192.996 299.269 192.531 299.269 191.6V191.473H299.015ZM349.034 195.916L348.273 195.281L348.146 195.535V195.662L348.527 197.059H349.034V195.916ZM294.825 199.344V200.106L295.333 200.487C295.333 200.063 295.883 198.878 296.984 196.932L297.111 195.916H296.73C295.883 196.678 295.249 197.821 294.825 199.344ZM345.988 211.151H345.353V211.658H345.607L345.988 211.278V211.151ZM348.527 212.42H348.273C347.934 213.69 347.765 215.128 347.765 216.737V216.864H347.892C348.4 216.779 348.654 216.356 348.654 215.594V213.182L348.527 212.42ZM350.558 220.291V220.799H351.066C351.573 219.022 351.827 217.668 351.827 216.737V216.356H351.447C350.939 216.356 350.642 217.668 350.558 220.291ZM343.448 220.291V221.053H344.083L344.464 219.91L344.21 218.641H344.083C343.66 218.641 343.448 219.191 343.448 220.291ZM340.275 232.86H340.529C341.121 232.86 341.671 231.548 342.179 228.924C343.025 227.485 343.448 225.581 343.448 223.211V222.83L343.322 222.449C342.56 222.449 341.671 225.412 340.656 231.336L340.529 231.59L340.275 232.86ZM290.255 226.512L289.874 226.766V226.893L290.255 227.274H290.382L290.763 226.893V226.766L290.382 226.512H290.255ZM286.573 228.416L286.193 228.924V229.94L286.447 230.194H286.7L286.954 229.432V228.797L286.573 228.416ZM337.609 235.906L337.863 236.922C335.408 240.138 334.181 241.916 334.181 242.254H335.07L335.197 242H335.323L335.45 242.254V242.381L329.611 247.205L329.484 247.586H329.611L329.738 247.84H329.991C331.684 247.248 333.673 245.809 335.958 243.524C338.074 240.815 339.301 238.403 339.64 236.287V235.906V235.018C339.64 234.425 339.428 234.045 339.005 233.875H338.751C338.328 233.875 337.947 234.552 337.609 235.906ZM291.144 236.795H291.017V238.065C291.017 239.08 291.567 239.969 292.667 240.731H293.048V240.477C293.048 239.292 292.413 238.065 291.144 236.795ZM334.562 252.03V252.537H334.689C337.99 250.337 339.64 248.686 339.64 247.586H339.132C337.185 249.11 335.662 250.591 334.562 252.03ZM319.962 249.364V249.617H321.359L321.74 249.11V248.856H321.359C320.512 248.856 320.047 249.025 319.962 249.364ZM307.648 249.237C307.648 249.829 308.24 250.337 309.425 250.76V250.633C309.425 249.956 308.833 249.49 307.648 249.237ZM299.269 251.141H299.015V251.649L299.396 251.903H299.777V251.649L299.269 251.141ZM321.486 254.696V255.203H322.247C324.956 254.526 326.31 253.638 326.31 252.537H326.183C325.506 252.537 323.94 253.257 321.486 254.696ZM316.534 252.918L314.63 253.172V253.807H316.534H319.327V253.553C319.327 253.214 318.777 253.003 317.677 252.918H316.534ZM311.837 253.045L311.456 253.299L312.726 253.807V253.553C312.641 253.214 312.345 253.045 311.837 253.045ZM329.738 254.315L329.484 254.696V255.203H329.991L330.499 254.696L329.991 254.315H329.738ZM300.157 255.457V255.711C300.157 256.134 301.596 256.769 304.474 257.615C308.029 258.716 310.441 259.266 311.71 259.266C313.741 259.266 316.831 258.8 320.978 257.869V257.615H318.566L309.933 257.996L304.474 256.092C302.781 255.669 301.342 255.457 300.157 255.457ZM360.206 168.875L361.603 168.494C368.374 168.494 374.213 169.256 379.122 170.78H381.281H382.931L383.185 171.414L383.058 178.778C382.973 179.285 382.677 179.539 382.169 179.539L380.646 178.016L377.218 177.254H376.075L375.314 177.508V178.016C376.499 178.524 377.26 178.778 377.599 178.778V179.031C377.599 179.37 376.626 179.624 374.679 179.793L373.917 204.549V207.215L373.79 241.239V243.27C373.79 244.031 376.16 244.412 380.9 244.412H405.275L409.337 244.666C409.845 244.666 410.268 242.339 410.607 237.684C410.861 236.499 411.241 235.906 411.749 235.906C416.743 236.076 419.24 236.541 419.24 237.303C418.901 238.065 418.393 238.446 417.716 238.446V238.826C418.562 239.673 418.986 240.392 418.986 240.985C418.986 242.931 418.689 245.513 418.097 248.729V250.633L418.224 251.268C417.716 252.199 417.462 253.045 417.462 253.807C417.293 253.807 416.954 254.357 416.447 255.457C414.585 256.134 412.765 256.473 410.988 256.473H410.48L399.562 255.457H398.927L373.917 256.473L356.525 254.823C355.848 254.315 355.509 253.765 355.509 253.172C356.186 248.179 357.244 245.682 358.683 245.682C359.106 245.259 360.756 244.92 363.634 244.666C364.734 241.958 364.777 229.686 363.761 207.85C364.269 201.925 364.692 193.123 365.031 181.444V180.174C365.031 178.905 364.142 178.27 362.365 178.27L361.222 178.016V177.635C362.745 176.873 363.93 176.492 364.777 176.492V175.985L361.857 175.604H360.079V176.112C360.418 176.112 360.587 176.239 360.587 176.492C360.333 176.916 359.952 177.127 359.445 177.127H358.937C358.09 176.789 357.667 175.815 357.667 174.207V173.826C357.667 171.88 358.217 170.653 359.318 170.145C359.572 170.145 359.868 169.722 360.206 168.875ZM361.222 172.811L360.841 173.065V173.319H361.476L361.857 172.938V172.811H361.222ZM378.107 172.938L377.599 173.319V173.573L378.488 173.826V173.953L378.107 174.207L375.568 174.08L375.441 174.207V174.842L375.822 175.223H378.361C379.715 175.223 380.392 174.757 380.392 173.826C379.799 173.234 379.165 172.938 378.488 172.938H378.107ZM368.712 173.826C369.051 174.419 369.982 174.715 371.505 174.715H372.394L373.029 174.08C372.267 173.573 371.505 173.319 370.743 173.319H369.728C369.051 173.319 368.712 173.488 368.712 173.826ZM371.632 176.112L370.997 176.365V176.492L371.251 177H372.14L372.902 176.746V176.365L372.14 176.112H371.632ZM371.124 178.778L370.997 179.031V180.809C371.082 181.909 371.294 182.459 371.632 182.459L372.394 181.951V181.063C372.309 179.539 371.886 178.778 371.124 178.778ZM370.236 203.914H369.855C369.178 207.469 369.135 209.796 369.728 210.897C370.151 211.658 370.447 211.405 370.616 210.135L370.743 205.946C370.659 204.591 370.49 203.914 370.236 203.914ZM416.827 240.731H416.573C415.896 242.508 415.558 243.524 415.558 243.778L414.542 249.11V249.617L414.923 249.998H415.304C416.404 249.49 417.039 247.078 417.208 242.762C417.124 241.408 416.997 240.731 416.827 240.731ZM369.728 241.239H369.093V241.619C368.67 242.889 368.458 243.82 368.458 244.412C368.458 245.597 368.754 246.317 369.347 246.571H369.855C370.193 246.571 370.363 245.343 370.363 242.889V242.381C370.363 241.789 370.151 241.408 369.728 241.239ZM404.64 245.555H403.37V245.936C403.37 246.19 403.92 246.359 405.021 246.444C405.021 247.121 405.782 247.502 407.306 247.586L409.718 247.332V246.824C408.11 246.824 406.417 246.401 404.64 245.555ZM401.085 246.824H397.784V246.951C397.869 247.205 398.292 247.332 399.054 247.332H401.847V246.951L401.085 246.824ZM357.921 248.729C358.598 248.729 358.937 248.433 358.937 247.84V247.586H358.683C358.175 247.671 357.921 248.052 357.921 248.729ZM370.49 248.475H369.855V249.11C371.378 249.364 378.995 249.829 392.706 250.506L392.96 250.379V250.125L370.49 248.475ZM358.175 249.617L357.413 249.744V250.125L357.794 250.506H358.175L358.556 250.125V249.998L358.175 249.617ZM400.07 250.76L399.816 251.014V251.268L400.958 251.522H402.736V251.268C402.736 250.929 402.439 250.76 401.847 250.76H400.07ZM405.529 252.41V252.537H405.909C406.756 252.537 407.602 252.199 408.448 251.522C408.364 251.183 408.025 251.014 407.433 251.014C407.094 251.014 406.46 251.479 405.529 252.41ZM409.21 252.918L407.306 253.045V253.172C407.983 253.849 408.829 254.188 409.845 254.188H410.226C410.649 254.188 411.03 254.018 411.368 253.68C411.792 254.018 412.257 254.188 412.765 254.188H413.781C414.712 254.188 415.219 254.018 415.304 253.68V253.553C415.304 253.13 413.992 252.918 411.368 252.918H409.21ZM374.552 254.061L371.759 254.188V254.442C371.759 255.034 373.748 255.415 377.726 255.584C380.35 255.584 382.508 255.33 384.2 254.823V254.442C380.646 254.188 377.472 254.061 374.679 254.061H374.552ZM369.22 254.442H368.966V254.823H369.22V254.442ZM389.025 254.442L388.263 254.696V255.203H389.025L390.548 254.823V254.442H389.025Z" fill="white"/>
<path d="M245.13 243.596C236.163 240.637 220.836 229.556 231.27 208.9C230.052 215.265 231.12 231.114 245.13 243.596Z" fill="white"/>
<path d="M316.458 243.596C307.491 240.637 292.164 229.556 302.598 208.9C301.381 215.265 302.448 231.114 316.458 243.596Z" fill="white"/>
</svg>
