<svg width="421" height="298" viewBox="0 0 421 298" fill="none" xmlns="http://www.w3.org/2000/svg">
<path d="M32.262 104.793C32.262 106.791 32.262 109.038 32.262 111.534C32.3333 114.031 32.369 116.635 32.369 119.345C32.369 121.985 32.369 124.624 32.369 127.263C32.369 129.831 32.3333 132.221 32.262 134.432C32.1907 135.502 32.0837 136.679 31.941 137.963C31.7983 139.176 31.513 140.317 31.085 141.387C30.657 142.457 29.9793 143.349 29.052 144.062C28.196 144.704 27.019 144.99 25.521 144.918C23.3097 144.776 21.7047 143.813 20.706 142.029C19.7787 140.246 19.2437 137.749 19.101 134.539C19.101 132.899 19.0653 131.008 18.994 128.868C18.994 126.728 18.9583 124.553 18.887 122.341C18.887 120.13 18.887 117.99 18.887 115.921C18.887 113.781 18.887 111.855 18.887 110.143C18.887 109.145 18.8513 107.932 18.78 106.505C18.78 105.079 18.8157 103.616 18.887 102.118C18.9583 100.62 19.1367 99.1937 19.422 97.8384C19.7073 96.4117 20.171 95.2347 20.813 94.3074C21.3123 93.7367 22.0257 93.3087 22.953 93.0234C23.8803 92.6667 24.8433 92.4884 25.842 92.4884C26.912 92.4884 27.9107 92.6667 28.838 93.0234C29.8367 93.38 30.55 93.8794 30.978 94.5214C31.2633 94.9494 31.4773 95.5557 31.62 96.3404C31.7627 97.125 31.8697 98.0167 31.941 99.0154C32.0837 99.9427 32.155 100.941 32.155 102.011C32.2263 103.01 32.262 103.937 32.262 104.793ZM28.196 83.1794C25.9847 83.75 24.13 83.536 22.632 82.5374C21.2053 81.4674 20.3137 79.898 19.957 77.8294C19.6717 76.3314 19.7787 75.0117 20.278 73.8704C20.7773 72.729 21.5263 71.873 22.525 71.3024C23.5237 70.6604 24.665 70.375 25.949 70.4464C27.233 70.5177 28.517 71.017 29.801 71.9444C31.0137 72.8004 31.8697 73.799 32.369 74.9404C32.9397 76.0817 33.118 77.1874 32.904 78.2574C32.7613 79.3274 32.2977 80.326 31.513 81.2534C30.7283 82.1094 29.6227 82.7514 28.196 83.1794ZM42.9202 107.147C42.9202 105.507 42.8845 103.759 42.8132 101.904C42.8132 100.05 43.1342 98.3734 43.7762 96.8754C44.3469 95.52 45.2742 94.557 46.5582 93.9864C47.9135 93.3444 49.2332 93.2017 50.5172 93.5584C51.8012 93.7724 52.7999 94.1647 53.5132 94.7354C54.2265 95.306 54.7259 95.9837 55.0112 96.7684C55.3679 97.4817 55.5819 98.3377 55.6532 99.3364C55.7245 100.264 55.7959 101.191 55.8672 102.118C56.5805 100.834 57.4722 99.8 58.5422 99.0154C59.6122 98.2307 60.7179 97.5887 61.8592 97.0894C63.0005 96.59 64.0705 96.2334 65.0692 96.0194C66.1392 95.8054 66.9595 95.6984 67.5302 95.6984C70.2409 95.6984 72.9159 96.3047 75.5552 97.5174C78.2659 98.6587 80.5129 100.299 82.2962 102.439C83.2949 103.723 84.0439 105.079 84.5432 106.505C85.1139 107.861 85.5062 109.287 85.7202 110.785C86.0055 112.283 86.1839 113.817 86.2552 115.386C86.3265 116.884 86.3979 118.418 86.4692 119.987C86.8259 124.553 86.8259 129.082 86.4692 133.576C86.3979 134.504 86.3622 135.574 86.3622 136.786C86.3622 137.999 86.2552 139.212 86.0412 140.424C85.8985 141.566 85.5775 142.6 85.0782 143.527C84.6502 144.383 83.9012 144.918 82.8312 145.132C81.3332 145.489 80.0849 145.56 79.0862 145.346C78.1589 145.204 77.4099 144.883 76.8392 144.383C76.2685 143.884 75.8405 143.242 75.5552 142.457C75.2699 141.673 75.0202 140.781 74.8062 139.782C74.6635 138.998 74.5209 138.106 74.3782 137.107C74.3069 136.037 74.2355 134.967 74.1642 133.897C74.1642 132.827 74.1285 131.793 74.0572 130.794C74.0572 129.724 74.0572 128.761 74.0572 127.905C74.0572 126.55 74.0215 125.052 73.9502 123.411C73.8789 121.771 73.8789 120.237 73.9502 118.81C73.9502 115.458 73.0585 112.925 71.2752 111.213C69.5632 109.43 67.2092 108.681 64.2132 108.966C61.9305 109.252 59.9332 110.179 58.2212 111.748C56.5092 113.246 55.6889 115.208 55.7602 117.633C55.7602 118.561 55.7602 119.417 55.7602 120.201C55.7602 120.986 55.7245 121.771 55.6532 122.555C55.6532 123.34 55.6532 124.196 55.6532 125.123C55.6532 126.051 55.6532 127.085 55.6532 128.226C55.6532 130.58 55.6532 133.077 55.6532 135.716C55.6532 138.284 55.3322 140.389 54.6902 142.029C54.1195 143.741 53.1565 144.918 51.8012 145.56C50.4459 146.202 48.8409 146.024 46.9862 145.025C46.2015 144.597 45.5595 144.027 45.0602 143.313C44.6322 142.529 44.2755 141.708 43.9902 140.852C43.7762 139.996 43.6335 139.14 43.5622 138.284C43.4909 137.357 43.4195 136.501 43.3482 135.716C43.1342 133.362 42.9915 131.187 42.9202 129.189C42.9202 127.121 42.9202 124.909 42.9202 122.555V107.147Z" fill="#3D5189"/>
<path d="M113.947 96.9824C116.301 95.841 118.762 95.0207 121.33 94.5214C123.898 94.022 126.43 93.915 128.927 94.2004C131.495 94.4857 133.956 95.1634 136.31 96.2334C138.735 97.3034 140.947 98.8014 142.944 100.727C144.585 102.368 146.011 104.365 147.224 106.719C148.437 109.002 149.328 111.249 149.899 113.46C151.112 117.384 151.29 121.343 150.434 125.337C149.578 129.332 148.116 133.041 146.047 136.465C145.048 138.035 143.8 139.461 142.302 140.745C140.875 141.958 139.342 142.957 137.701 143.741C135.561 144.74 133.243 145.418 130.746 145.774C128.249 146.202 125.824 146.309 123.47 146.095C119.19 145.881 115.409 144.811 112.128 142.885C108.918 140.959 106.314 138.498 104.317 135.502C102.391 132.506 101.107 129.118 100.465 125.337C99.8943 121.485 100.144 117.562 101.214 113.567C102.355 109.287 103.996 105.828 106.136 103.188C108.347 100.478 110.951 98.409 113.947 96.9824ZM117.157 111.32C116.087 112.319 115.267 113.567 114.696 115.065C114.125 116.563 113.769 118.133 113.626 119.773C113.483 121.343 113.59 122.948 113.947 124.588C114.375 126.158 115.017 127.584 115.873 128.868C116.586 129.938 117.87 130.83 119.725 131.543C121.58 132.257 123.506 132.685 125.503 132.827C127.786 132.97 129.783 132.364 131.495 131.008C133.207 129.582 134.491 127.834 135.347 125.765C136.274 123.697 136.702 121.45 136.631 119.024C136.56 116.599 135.918 114.388 134.705 112.39C133.849 110.964 132.636 109.929 131.067 109.287C129.569 108.574 127.964 108.217 126.252 108.217C124.611 108.146 122.971 108.396 121.33 108.966C119.689 109.466 118.298 110.25 117.157 111.32Z" fill="#3D5189"/>
<path d="M286.42 90.9244L269.95 91.9004L266.656 115.812C266.087 119.96 265.03 123.742 263.484 127.158C262.02 130.574 260.353 133.543 258.482 136.064C256.693 138.504 254.985 140.375 253.358 141.676C251.813 142.978 250.634 143.628 249.82 143.628C248.763 143.628 247.787 143.181 246.892 142.286C246.079 141.31 245.672 140.294 245.672 139.236C245.672 138.504 245.957 137.894 246.526 137.406C249.78 134.885 252.586 131.957 254.944 128.622C257.303 125.288 258.889 120.733 259.702 114.958L262.996 92.2664L258.97 92.5104C256.937 92.5917 254.944 92.7951 252.992 93.1204C251.122 93.3644 249.739 93.5271 248.844 93.6084H248.722C247.665 93.6084 246.77 92.9984 246.038 91.7784C245.306 90.5584 244.94 89.4197 244.94 88.3624C244.94 87.2237 245.388 86.6544 246.282 86.6544H251.284C252.423 86.6544 253.643 86.6544 254.944 86.6544C256.327 86.6544 257.628 86.6137 258.848 86.5324L296.912 84.3364C298.783 84.1737 300.694 84.0111 302.646 83.8484C304.598 83.6857 306.062 83.5231 307.038 83.3604H307.404C308.38 83.3604 309.194 83.9704 309.844 85.1904C310.576 86.3291 310.942 87.4271 310.942 88.4844C310.942 89.7044 310.495 90.3144 309.6 90.3144C308.95 90.3144 307.892 90.3144 306.428 90.3144C304.964 90.2331 303.419 90.1924 301.792 90.1924C300.979 90.1924 300.166 90.1924 299.352 90.1924C298.539 90.1924 297.766 90.2331 297.034 90.3144L293.496 90.5584L288.494 125.328C288.332 126.467 288.21 127.524 288.128 128.5C288.047 129.395 288.006 130.208 288.006 130.94C288.006 133.055 288.332 134.519 288.982 135.332C289.714 136.146 290.853 136.552 292.398 136.552C293.862 136.552 295.692 136.268 297.888 135.698C300.166 135.048 302.077 134.112 303.622 132.892C305.005 131.916 306.022 131.428 306.672 131.428C307.404 131.428 307.77 131.876 307.77 132.77C307.77 133.746 307.038 135.048 305.574 136.674C304.11 138.301 302.158 139.765 299.718 141.066C297.278 142.368 294.513 143.018 291.422 143.018C287.762 143.018 285.119 142.042 283.492 140.09C281.866 138.057 281.052 135.007 281.052 130.94C281.052 129.964 281.093 128.948 281.174 127.89C281.256 126.752 281.378 125.572 281.54 124.352L286.42 90.9244Z" fill="#3D5189"/>
<path d="M91.788 83.8944C91.508 84.3237 91.172 84.5851 90.78 84.6784C90.4067 84.7717 90.0427 84.7437 89.688 84.5944C89.3333 84.4451 89.0347 84.2024 88.792 83.8664C88.568 83.5117 88.4747 83.1104 88.512 82.6624C88.5307 82.3637 88.6053 82.0371 88.736 81.6824C88.8667 81.3277 89.0253 80.9917 89.212 80.6744C89.4173 80.3384 89.632 80.0304 89.856 79.7504C90.0987 79.4517 90.3413 79.1997 90.584 78.9944C91.032 78.6397 91.536 78.3317 92.096 78.0704C92.6747 77.8091 93.272 77.6131 93.888 77.4824C94.5227 77.3517 95.148 77.2957 95.764 77.3144C96.3987 77.3331 96.9867 77.4264 97.528 77.5944C99.0213 78.0611 100.179 78.7984 101 79.8064C101.821 80.8144 102.232 82.1211 102.232 83.7264C102.232 84.4917 102.157 85.1824 102.008 85.7984C101.877 86.3957 101.635 86.9744 101.28 87.5344C100.944 88.0944 100.487 88.6637 99.908 89.2424C99.348 89.8211 98.648 90.4557 97.808 91.1464C97.528 91.3891 97.2387 91.6317 96.94 91.8744C96.6413 92.1171 96.3427 92.3597 96.044 92.6024C95.9507 92.6771 95.7733 92.7891 95.512 92.9384C95.2507 93.0877 95.0173 93.2371 94.812 93.3864C94.6067 93.5357 94.4853 93.6757 94.448 93.8064C94.4107 93.9371 94.56 94.0117 94.896 94.0304C95.3067 94.0677 95.6333 94.0771 95.876 94.0584C96.1187 94.0397 96.4453 94.0304 96.856 94.0304C97.3413 94.0304 97.8173 94.0211 98.284 94.0024C98.7507 93.9837 99.2173 93.9931 99.684 94.0304C99.8707 94.0491 100.076 94.0584 100.3 94.0584C100.524 94.0397 100.748 94.0397 100.972 94.0584C101.196 94.0584 101.411 94.0864 101.616 94.1424C101.821 94.1797 101.999 94.2637 102.148 94.3944C102.297 94.5251 102.409 94.7024 102.484 94.9264C102.559 95.1504 102.596 95.3931 102.596 95.6544C102.615 95.8971 102.596 96.1397 102.54 96.3824C102.484 96.6064 102.391 96.7837 102.26 96.9144C102.017 97.1944 101.719 97.3344 101.364 97.3344C101.009 97.3157 100.673 97.3064 100.356 97.3064H90.304C90.1173 97.3064 89.912 97.3157 89.688 97.3344C89.4827 97.3531 89.296 97.3344 89.128 97.2784C88.792 97.1851 88.624 97.0077 88.624 96.7464C88.6427 96.4851 88.652 96.2144 88.652 95.9344C88.652 95.4677 88.764 95.0384 88.988 94.6464C89.212 94.2357 89.492 93.8624 89.828 93.5264C90.1827 93.1717 90.556 92.8451 90.948 92.5464C91.34 92.2477 91.704 91.9584 92.04 91.6784C92.5253 91.2491 93.048 90.8197 93.608 90.3904C94.168 89.9611 94.7 89.5317 95.204 89.1024C95.8573 88.5611 96.408 88.0664 96.856 87.6184C97.3227 87.1704 97.696 86.7504 97.976 86.3584C98.256 85.9664 98.4613 85.5837 98.592 85.2104C98.7227 84.8184 98.788 84.4077 98.788 83.9784C98.788 83.0264 98.4987 82.2984 97.92 81.7944C97.3413 81.2717 96.604 81.0104 95.708 81.0104C95.0547 81.0104 94.4387 81.1504 93.86 81.4304C93.3 81.7104 92.8333 82.1211 92.46 82.6624C92.348 82.8677 92.236 83.0824 92.124 83.3064C92.0307 83.5117 91.9187 83.7077 91.788 83.8944Z" fill="#FFB250"/>
<path d="M155.864 97.5304L182.873 138.838L207.234 97.5304L236.361 138.838" stroke="#3D5189" stroke-width="9" stroke-linecap="round" stroke-linejoin="round"/>
<path d="M208.5 122.299C206.291 122.299 204.5 124.09 204.5 126.299C204.5 128.508 206.291 130.299 208.5 130.299V122.299ZM208.5 130.299H227.114V122.299H208.5V130.299Z" fill="#3D5189"/>
<circle cx="291.077" cy="70.1684" r="8.1452" fill="#FFB250"/>
<rect x="323.29" y="88.5542" width="82.9978" height="47.2839" rx="23.6419" stroke="#3D5189" stroke-width="6"/>
<circle cx="381.838" cy="112.196" r="15.0098" fill="#FFB250"/>
<path d="M31.6035 168.494L39.9824 170.145C41.4212 170.145 43.8757 171.372 47.3457 173.826H47.8535C47.9382 170.526 48.2344 168.875 48.7422 168.875C51.2812 169.806 52.8047 170.272 53.3125 170.272H55.8516L57.8828 170.145L58.1367 170.526L58.0098 171.287V187.537C58.0098 188.468 57.7135 189.23 57.1211 189.823C57.7982 190.5 58.1367 191.134 58.1367 191.727C58.1367 192.319 57.8828 193.039 57.375 193.885L57.7559 196.043C57.7559 197.059 57.502 197.567 56.9941 197.567L53.6934 197.059H53.5664L51.7891 197.567H51.5352C51.1966 197.567 50.6465 195.747 49.8848 192.108C49.8848 190.923 49.377 189.865 48.3613 188.934C47.2611 187.326 46.7109 186.226 46.7109 185.633L47.4727 185.379V185.252C46.2031 184.237 45.4414 183.094 45.1875 181.824C41.7174 178.354 38.7552 176.619 36.3008 176.619H35.4121C34.4811 176.619 30.2493 177.508 22.7168 179.285C22.0397 179.793 20.9395 181.401 19.416 184.11C17.8079 186.226 17.0039 188.257 17.0039 190.203C17.5117 195.62 18.1888 198.328 19.0352 198.328C20.1354 201.206 21.4473 202.941 22.9707 203.533C23.2246 203.957 24.2402 204.38 26.0176 204.803C27.2025 205.903 29.6992 207.257 33.5078 208.865C33.5078 209.204 33.931 209.416 34.7773 209.5L36.3008 208.992C36.9779 209.162 37.3164 209.331 37.3164 209.5V209.627L36.8086 210.135V210.516C37.9935 211.955 39.4323 212.674 41.125 212.674V212.547L38.7129 210.516V210.389C39.4746 210.389 42.1829 211.87 46.8379 214.832C53.8626 221.349 57.375 225.496 57.375 227.274C58.5599 232.436 59.1523 235.653 59.1523 236.922C58.3906 243.354 57.6712 246.571 56.9941 246.571L53.9473 251.903C48.1074 255.457 44.6797 257.235 43.6641 257.235C33.931 255.119 27.4564 253.426 24.2402 252.156C17.6387 245.978 14.3379 242.339 14.3379 241.239L13.8301 240.858L13.5762 240.985V241.619V248.729C13.5762 249.321 12.0527 249.617 9.00586 249.617H6.7207L4.81641 250.252C4.22396 250.252 3.46224 249.787 2.53125 248.856V248.729L3.16602 247.713C3.75846 233.494 4.47786 226.385 5.32422 226.385H5.57812L7.86328 226.766C8.28646 226.766 8.70964 226.639 9.13281 226.385L10.7832 226.766L11.6719 226.512H12.1797C12.5182 226.681 13.2799 227.908 14.4648 230.194C17.681 234.256 20.5586 238.149 23.0977 241.873C23.4362 241.873 24.4941 243.016 26.2715 245.301L34.1426 248.729H36.4277V249.237H36.6816L37.3164 248.856H37.5703C38.2474 249.364 38.8822 249.617 39.4746 249.617H40.2363C42.5215 249.533 43.6641 249.237 43.6641 248.729V248.475H41.125L39.6016 248.348C39.6862 248.009 42.6908 247.375 48.6152 246.444C49.9694 246.444 51.2812 244.074 52.5508 239.334C52.5508 237.811 52.9316 236.711 53.6934 236.033V235.526C52.2546 231.04 50.6465 228.12 48.8691 226.766C47.8535 224.989 44.0026 222.915 37.3164 220.545C32.9154 218.852 29.3607 216.864 26.6523 214.578C22.6745 213.393 20.3893 212.082 19.7969 210.643C19.2891 209.543 17.3424 207.723 13.957 205.184C12.4336 200.529 10.7832 196.932 9.00586 194.393C8.07487 190.669 7.60938 186.733 7.60938 182.586C8.28646 179.793 11.3333 175.942 16.75 171.033C19.8815 169.341 24.8327 168.494 31.6035 168.494ZM16.75 172.938H18.2734C18.9505 172.938 22.082 172.218 27.668 170.78C29.6992 170.441 30.7148 170.102 30.7148 169.764L30.207 169.637C21.2357 170.399 16.75 171.499 16.75 172.938ZM50.2656 171.287L50.1387 171.795V172.176C50.1387 172.684 50.4772 172.938 51.1543 172.938H53.3125V172.811C52.4661 171.795 51.4505 171.287 50.2656 171.287ZM20.5586 177.635H20.8125C21.6589 177.635 23.6478 176.873 26.7793 175.35L30.207 174.08V174.207L29.8262 174.969H30.8418L31.6035 174.715V174.207L31.3496 173.826V173.065H31.0957C27.7103 174.08 24.9173 175.138 22.7168 176.239C21.278 176.492 20.5586 176.958 20.5586 177.635ZM42.0137 174.08H39.8555C39.8555 174.25 41.125 174.673 43.6641 175.35H44.2988L44.5527 175.223V174.969C44.2988 174.377 43.4525 174.08 42.0137 174.08ZM50.7734 174.207L50.5195 174.715V174.969L50.6465 175.731H51.0273L51.4082 175.35V174.715L51.0273 174.207H50.7734ZM17.3848 175.985V176.112C17.3848 176.365 17.554 176.492 17.8926 176.492C18.3158 176.323 18.612 176.027 18.7812 175.604V175.35C18.0195 175.35 17.554 175.561 17.3848 175.985ZM46.2031 176.619L46.8379 177.254H47.4727L47.8535 176.873V176.492C47.8535 176.239 47.515 175.985 46.8379 175.731C46.4147 175.9 46.2031 176.196 46.2031 176.619ZM52.6777 178.397L53.0586 178.651V178.778L52.5508 179.412V179.793C52.5508 179.962 52.8893 180.174 53.5664 180.428C53.7357 181.105 53.9896 181.486 54.3281 181.571H54.709V181.063L54.582 180.682V180.174H54.9629L55.5977 180.682H55.8516L55.9785 179.92V179.666C55.3861 177.296 54.9629 176.112 54.709 176.112H53.9473C53.1009 176.45 52.6777 177.212 52.6777 178.397ZM16.623 181.571L17.3848 182.332H17.6387C18.6543 182.163 19.5853 181.613 20.4316 180.682L20.0508 180.428H18.6543C17.7233 180.428 17.0462 180.809 16.623 181.571ZM11.0371 180.555L10.6562 180.936V181.063H11.291V180.555H11.0371ZM14.4648 186.522V186.649H14.7188C16.2422 185.21 17.0039 183.94 17.0039 182.84L16.623 182.459C15.6074 182.459 14.888 183.813 14.4648 186.522ZM55.8516 182.84H55.2168V183.094C55.4707 183.602 55.7246 183.856 55.9785 183.856V183.348L55.8516 182.84ZM54.582 183.729L54.2012 184.11H54.582V183.729ZM52.5508 184.364L52.043 184.744V184.871L52.5508 185.379H53.0586L53.5664 184.871V184.744L53.0586 184.364H52.5508ZM55.4707 185.633L54.9629 186.014V186.903L55.0898 187.791H55.4707L55.8516 185.633H55.4707ZM52.8047 187.791H52.5508V188.045L52.8047 188.426H53.3125V188.045L52.8047 187.791ZM52.4238 191.219V193.25L52.6777 193.504H52.8047C53.4818 193.504 53.8626 193.208 53.9473 192.615C53.5241 191.6 53.3125 190.753 53.3125 190.076H53.0586C52.6354 190.246 52.4238 190.627 52.4238 191.219ZM53.0586 195.281L52.6777 195.662L53.3125 196.043H53.6934L53.8203 195.662L53.3125 195.281H53.0586ZM13.957 200.74V201.629L14.4648 202.137H15.4805V201.629C14.888 201.037 14.3802 200.74 13.957 200.74ZM16.3691 204.168H16.2422V204.803C18.0195 206.073 19.2044 206.707 19.7969 206.707H20.3047V206.199C19.1198 205.353 17.8079 204.676 16.3691 204.168ZM32.2383 208.485H31.0957C31.1803 208.823 31.5189 208.992 32.1113 208.992H32.6191V208.865L32.2383 208.485ZM33.5078 210.389L33.127 210.643C33.4655 211.151 34.862 211.955 37.3164 213.055V212.547C36.1315 211.447 34.862 210.727 33.5078 210.389ZM36.4277 218.006H35.793V218.641C36.8932 219.149 38.2474 219.445 39.8555 219.53C39.8555 219.868 40.1517 220.037 40.7441 220.037H41.7598V219.91C41.7598 219.149 39.9824 218.514 36.4277 218.006ZM44.9336 221.434H44.5527V221.815L44.9336 222.196H45.1875V221.815L44.9336 221.434ZM6.7207 234.51H6.21289C5.78971 235.78 5.57812 237.388 5.57812 239.334L5.83203 240.985H5.95898C6.7207 240.985 7.10156 240.646 7.10156 239.969C6.84766 238.022 6.7207 236.203 6.7207 234.51ZM9.38672 238.192C8.96354 239.63 8.49805 240.561 7.99023 240.985L8.49805 242.381V245.682V246.444C8.49805 247.036 8.66732 247.332 9.00586 247.332H9.76758L10.1484 246.951V246.444C10.1484 240.942 9.89453 238.192 9.38672 238.192ZM16.3691 241.365H16.2422V241.619C16.5807 242.974 17.2155 243.651 18.1465 243.651V243.397C17.554 242.043 16.9616 241.365 16.3691 241.365ZM5.95898 244.158L6.21289 244.412H6.33984C6.59375 244.412 6.80534 243.566 6.97461 241.873L6.7207 241.619C6.38216 241.619 6.12826 242.466 5.95898 244.158ZM20.8125 242.508H20.5586V242.635C21.2357 243.905 21.9128 244.539 22.5898 244.539V244.158C21.9128 243.397 21.3203 242.847 20.8125 242.508ZM53.6934 244.666L53.0586 245.301L53.5664 245.809H54.2012L54.709 245.301V245.047L54.3281 244.666H53.6934ZM28.3027 247.586V247.713C28.472 248.136 28.7682 248.348 29.1914 248.348C29.0221 247.84 28.7259 247.586 28.3027 247.586ZM22.209 247.84L21.3203 247.713V247.84C22.1667 249.702 24.2826 251.141 27.668 252.156C30.4609 253.172 34.3965 254.23 39.4746 255.33C40.4902 256.007 41.3789 256.388 42.1406 256.473H43.2832C45.3991 255.88 46.457 255.119 46.457 254.188L35.0312 253.299C28.3451 251.183 24.071 249.364 22.209 247.84ZM44.5527 251.522V251.776L44.9336 252.03H45.5684C48.6152 252.03 50.3079 251.606 50.6465 250.76L50.1387 250.506H49.377C48.446 250.506 46.8379 250.845 44.5527 251.522ZM40.7441 254.696V254.188H40.998C41.5905 254.188 41.8867 254.357 41.8867 254.696H41.5059H40.7441ZM97.6191 171.922H98.7617C102.909 171.922 107.479 173.403 112.473 176.365C115.181 178.82 116.831 180.047 117.424 180.047H118.186C118.863 179.624 119.201 179.158 119.201 178.651V178.397L118.566 176.492C118.566 176.154 118.863 175.942 119.455 175.858C119.963 176.027 120.428 176.365 120.852 176.873H121.105V176.492C121.105 175.561 120.471 174.546 119.201 173.446C119.54 173.192 120.428 173.065 121.867 173.065C122.206 173.065 123.729 173.911 126.438 175.604C127.03 175.604 127.326 175.9 127.326 176.492V188.426C127.326 194.012 126.903 197.228 126.057 198.074L125.93 198.455L126.311 198.963V199.09C126.311 200.36 124.449 200.994 120.725 200.994C119.878 201.418 119.328 201.629 119.074 201.629H118.566C118.566 200.275 117.593 197.863 115.646 194.393C114.208 188.807 112.854 185.506 111.584 184.49C110.23 182.882 106.421 181.571 100.158 180.555L96.4766 180.174L91.5254 180.682L90.6367 179.793C89.1133 179.962 86.4049 181.782 82.5117 185.252L82.2578 186.268V186.522H82.7656C86.2357 183.644 88.7324 181.824 90.2559 181.063V181.317C88.2246 183.517 84.5007 186.352 79.084 189.823C76.7988 191.515 75.0638 193.843 73.8789 196.805C71.763 201.629 70.7051 206.369 70.7051 211.024C70.7051 219.064 71.6784 224.904 73.625 228.543C77.0104 237.768 80.9036 244.328 85.3047 248.221C90.9753 251.352 96.3496 252.918 101.428 252.918H103.459C105.998 252.918 108.749 251.987 111.711 250.125C112.727 248.179 114.969 245.809 118.439 243.016C121.317 240.731 122.756 238.869 122.756 237.43V237.049L122.629 233.621C122.629 233.367 123.137 232.902 124.152 232.225C124.152 231.886 124.364 231.59 124.787 231.336H125.168L128.215 231.844H130.373C131.05 231.844 131.389 232.436 131.389 233.621C132.235 237.515 132.658 240.434 132.658 242.381C132.658 246.698 132.108 250.252 131.008 253.045V253.426L131.135 254.315L130.5 255.33V255.584C130.5 255.753 131.219 255.965 132.658 256.219V256.473L124.279 260.535H124.025C122.671 258.758 121.613 256.684 120.852 254.315L120.725 254.188C119.624 254.611 117.72 255.669 115.012 257.362C108.326 260.155 104.221 261.551 102.697 261.551L95.0801 259.266L93.5566 259.012H92.7949L91.1445 259.52C89.1979 259.52 86.0664 258.631 81.75 256.854C78.2799 256.007 75.3177 253.68 72.8633 249.871C66.9388 241.323 63.9766 234.722 63.9766 230.067C63.2148 227.02 62.834 224.692 62.834 223.084C62.9186 222.238 63.4688 221.815 64.4844 221.815L64.7383 222.957V223.592H65.2461L65.7539 223.211V222.703C65.7539 221.603 64.7806 220.841 62.834 220.418C62.5801 220.418 62.4108 215.806 62.3262 206.58C62.3262 204.549 63.4688 200.783 65.7539 195.281C65.9232 195.281 66.1348 194.054 66.3887 191.6C66.7272 191.515 67.0658 190.542 67.4043 188.68C69.9434 185.802 73.0749 183.136 76.7988 180.682C78.4069 179.158 80.8613 177.677 84.1621 176.239C90.5098 173.361 94.9954 171.922 97.6191 171.922ZM93.3027 174.715V175.096H93.5566C94.6569 175.011 95.207 174.757 95.207 174.334L94.8262 174.207H94.6992C93.8529 174.207 93.3874 174.377 93.3027 174.715ZM101.682 174.207H101.555V174.588L103.586 174.969H103.84L104.094 174.588C104.094 174.334 103.29 174.207 101.682 174.207ZM82.3848 178.778V179.031H82.5117C83.9505 178.693 85.6009 177.889 87.4629 176.619V176.492L87.209 176.365H87.082C85.2201 176.704 83.6543 177.508 82.3848 178.778ZM100.92 177.635C100.92 177.974 102.74 178.439 106.379 179.031L107.014 179.539H107.902L108.283 179.031V178.778C107.437 178.778 106.548 178.354 105.617 177.508C104.009 176.831 102.867 176.492 102.189 176.492C101.343 176.492 100.92 176.873 100.92 177.635ZM116.027 181.317H115.646V181.571C116.324 182.586 116.958 183.094 117.551 183.094H117.678L118.186 182.713V182.586C117.424 181.74 116.704 181.317 116.027 181.317ZM81.1152 183.983H81.4961C81.8346 183.898 82.0885 183.686 82.2578 183.348H82.0039C81.6654 183.348 81.3691 183.559 81.1152 183.983ZM79.7188 185.633H80.2266L80.7344 185.252V184.744C80.0573 184.744 79.7188 185.041 79.7188 185.633ZM117.551 185.252L117.297 185.633V185.887L117.678 186.141L118.186 185.633L117.678 185.252H117.551ZM71.2129 188.68C72.2285 188.68 72.9479 188.299 73.3711 187.537V187.156H72.8633C72.0169 187.156 71.4668 187.664 71.2129 188.68ZM121.867 193.504L121.613 193.758V194.139L121.994 194.266L122.375 193.885L122.248 193.504H121.867ZM119.836 196.551V196.805C121.275 196.382 121.994 195.959 121.994 195.535C121.825 195.197 121.613 194.943 121.359 194.774H120.852C120.174 195.451 119.836 196.043 119.836 196.551ZM120.344 198.582L119.836 199.09V199.725H120.344C120.852 199.725 121.19 199.513 121.359 199.09V198.963L121.105 198.582H120.344ZM69.1816 204.168V204.422H69.5625L70.1973 203.914V203.026H69.6895C69.3509 203.28 69.1816 203.66 69.1816 204.168ZM65.2461 205.438H64.9922L64.4844 207.342V208.485H64.7383C65.0768 208.485 65.2461 208.061 65.2461 207.215V205.438ZM64.7383 209.754H64.2305V210.389H64.7383L64.9922 210.135L64.7383 209.754ZM68.166 219.91V222.196C68.3353 224.227 69.4779 226.766 71.5938 229.813L71.8477 230.067H72.3555V229.432C70.7474 224.608 69.6048 219.783 68.9277 214.959H68.8008C68.3776 214.959 68.166 216.61 68.166 219.91ZM65.7539 215.721H65.627L65.5 216.483V217.625L65.8809 218.133L66.2617 217.752V216.99C66.2617 216.229 66.0924 215.806 65.7539 215.721ZM65.5 225.115H65.1191V225.496L65.627 225.877H65.7539V225.496L65.5 225.115ZM68.4199 230.194L68.0391 230.448C68.0391 230.955 68.2507 231.294 68.6738 231.463H68.8008L69.1816 231.336V230.955L68.4199 230.194ZM68.293 233.621H68.166V233.875C68.5046 235.737 68.9701 236.668 69.5625 236.668H69.6895C70.028 236.668 70.1973 236.499 70.1973 236.16L68.293 233.621ZM125.803 236.922L125.422 237.049V237.303L126.057 237.938H126.311C127.242 237.768 127.707 237.557 127.707 237.303V237.049L127.58 236.922H125.803ZM127.199 239.842V240.35C127.453 240.858 127.792 241.112 128.215 241.112C128.553 240.773 128.723 240.265 128.723 239.588V238.953C128.723 238.699 128.553 238.573 128.215 238.573C127.538 238.826 127.199 239.25 127.199 239.842ZM125.803 240.223L125.422 240.477V242.127L125.93 242.635H126.057L126.438 242.254V241.365C126.438 240.773 126.226 240.392 125.803 240.223ZM75.0215 241.492V241.619C76.3757 244.243 77.5182 245.555 78.4492 245.555V245.047C76.8411 242.847 75.6986 241.662 75.0215 241.492ZM70.832 241.873L70.5781 242.254L70.832 242.635H71.0859L71.4668 242.254L71.0859 241.873H70.832ZM121.867 243.27L121.613 243.524V243.905H122.248L122.629 243.524V243.27H121.867ZM126.438 243.27H125.93V243.778H126.311L126.438 243.397V243.27ZM72.1016 243.905H71.9746V244.031C71.9746 244.285 72.2285 244.878 72.7363 245.809H73.3711V245.555C73.3711 244.962 72.9479 244.412 72.1016 243.905ZM120.725 245.555V245.809H120.852L121.613 245.428V245.047H121.359C120.936 245.216 120.725 245.386 120.725 245.555ZM79.7188 246.19L79.3379 246.444C79.3379 247.544 80.1419 248.263 81.75 248.602H82.0039L82.5117 248.221C81.8346 247.29 80.9036 246.613 79.7188 246.19ZM126.818 246.444H126.691V247.332L127.072 247.713H127.199V246.698L126.818 246.444ZM74.3867 246.951H74.0059C74.6829 248.898 75.5293 250.168 76.5449 250.76H77.3066V249.871C76.7142 248.94 75.7409 247.967 74.3867 246.951ZM83.9082 250.506H83.1465V250.633C83.1465 250.887 84.2891 251.268 86.5742 251.776V251.522C86.151 250.845 85.2624 250.506 83.9082 250.506ZM118.186 252.156V252.41C118.778 252.41 119.243 252.114 119.582 251.522V251.395H119.455C118.778 251.395 118.355 251.649 118.186 252.156ZM126.438 252.156L126.311 252.41L126.438 253.045L127.072 252.918V252.41L126.691 252.156H126.438ZM80.7344 253.807L80.4805 254.188C80.5651 254.526 82.3848 255.246 85.9395 256.346C85.9395 256.684 86.6589 256.854 88.0977 256.854L88.7324 256.6V256.473C88.6478 256.134 87.082 255.373 84.0352 254.188C83.7812 253.934 83.0618 253.807 81.877 253.807H80.7344ZM86.8281 253.807L86.7012 253.934V254.188C88.9017 255.627 91.61 256.346 94.8262 256.346H95.7148L95.9688 256.092C91.4831 254.569 88.4362 253.807 86.8281 253.807ZM97.1113 255.203C98.127 256.304 99.8197 256.854 102.189 256.854C104.982 256.6 106.379 256.177 106.379 255.584V255.33C106.379 254.907 105.321 254.696 103.205 254.696H101.301C98.5078 254.696 97.1113 254.865 97.1113 255.203ZM111.965 255.203L111.711 255.584H112.219L112.473 255.33L112.346 255.203H111.965ZM126.691 256.6L124.787 256.854V257.362L125.422 257.869H126.057C128.088 257.531 129.104 257.192 129.104 256.854V256.6H126.691ZM104.094 258.758L100.412 259.774V260.155L102.443 260.535H103.205C104.051 260.535 106.167 259.604 109.553 257.742V257.362H109.426C108.664 257.362 106.887 257.827 104.094 258.758ZM197.658 171.033C200.367 171.711 201.721 173.107 201.721 175.223L201.975 178.524C201.975 179.031 198.505 179.709 191.564 180.555L191.184 181.063V181.571C191.184 182.502 192.072 186.691 193.85 194.139V196.17L193.469 201.756C195.331 213.944 196.262 227.993 196.262 243.905H196.516C203.794 243.905 207.434 244.709 207.434 246.317C208.195 250.633 208.576 253.341 208.576 254.442C208.576 256.05 205.783 256.854 200.197 256.854H197.785L197.15 256.981L196.516 256.854H195.119C190.803 256.854 188.645 256.473 188.645 255.711C187.883 251.649 187.502 248.686 187.502 246.824V244.92L188.01 242.127V241.873C187.502 239.842 187.248 238.446 187.248 237.684V236.795C186.825 228.501 186.613 222.746 186.613 219.53H186.359L160.08 218.895L159.572 219.53L159.699 224.608L159.572 238.953V243.27C159.572 245.386 159.826 247.544 160.334 249.744L159.572 252.156C160.08 253.172 160.334 253.934 160.334 254.442C160.334 256.896 158.684 258.123 155.383 258.123C149.712 258.123 146.115 257.615 144.592 256.6C141.46 255.753 139.895 254.484 139.895 252.791L140.91 247.332C141.249 247.078 141.841 246.951 142.688 246.951H145.988C148.02 246.951 149.035 246.698 149.035 246.19L149.162 244.92V238.699C149.162 224.904 148.866 214.409 148.273 207.215L148.4 201.629C148.062 201.629 147.639 195.366 147.131 182.84L146.115 182.459H145.988C139.217 182.459 135.832 182.078 135.832 181.317L134.562 178.397C134.562 176.365 137.948 175.35 144.719 175.35C148.612 175.096 152.209 174.969 155.51 174.969L157.16 175.35L156.525 177L156.906 177.889C156.314 178.481 156.018 179.074 156.018 179.666V180.428L158.176 206.453C158.176 207.892 158.514 208.612 159.191 208.612L185.725 209.5L185.979 208.992L185.471 202.518C185.471 202.01 185.725 201.333 186.232 200.487L185.725 199.852V199.598L185.979 199.09V198.836L185.471 195.281V191.219C184.794 186.479 184.286 183.856 183.947 183.348C183.186 183.348 182.297 180.767 181.281 175.604C181.535 173.573 181.747 172.557 181.916 172.557C188.518 172.134 193.765 171.626 197.658 171.033ZM184.455 174.207L184.201 174.461V174.715C184.286 175.054 184.582 175.223 185.09 175.223H185.725C186.486 175.223 186.91 175.054 186.994 174.715C186.91 174.377 186.571 174.207 185.979 174.207H184.455ZM185.725 176.619L185.471 177V177.254L185.725 177.508L186.232 177.254V176.619H185.725ZM137.736 178.397L137.482 177.889L137.229 178.143V178.397H137.736ZM153.732 184.871H153.479V185.252L153.732 185.633H154.24V185.252L153.732 184.871ZM150.559 185.76H149.924L149.797 187.283L149.924 187.918H150.559V186.776V186.649V185.76ZM191.564 195.789L191.184 196.043V196.424L191.564 196.678L191.945 196.424V196.043L191.564 195.789ZM191.438 198.836L191.564 199.344H191.945L192.072 198.963V197.821L191.945 197.567C191.607 197.567 191.438 197.99 191.438 198.836ZM150.812 209.373H150.559V209.881C150.559 210.474 150.728 210.812 151.066 210.897H151.193L151.574 210.643C151.574 210.05 151.32 209.627 150.812 209.373ZM159.064 211.151H158.811V211.405L159.191 211.785H159.572V211.658L159.064 211.151ZM177.346 211.151H173.156V211.405L176.584 211.785H177.346L177.6 211.405L177.346 211.151ZM151.066 211.912L150.812 212.166V212.42H151.066L151.447 212.039V211.912H151.066ZM178.742 215.594L178.869 215.721H180.646L181.154 215.34L181.027 215.086H180.012C179.25 215.086 178.827 215.255 178.742 215.594ZM187.502 223.338L187.248 223.719V224.1L187.629 224.481H187.883V223.719L187.502 223.338ZM187.502 225.242L187.248 225.496V226.893H187.502L187.883 226.639V225.496L187.502 225.242ZM191.438 240.985L190.803 240.477V241.365L191.057 241.619L191.438 241.365V240.985ZM157.16 240.858H156.652V240.985C156.737 241.577 156.906 241.873 157.16 241.873H157.541L157.16 240.858ZM148.02 250.506H147.512V250.76H148.02V250.506ZM157.922 252.537L157.414 253.172V253.299L157.795 253.807H157.922L158.684 253.172V252.918L158.303 252.537H157.922ZM205.656 254.061L205.402 254.188V254.696H206.164V254.188L205.783 254.061H205.656ZM201.975 254.188L201.467 254.696L201.721 255.203H202.355C202.948 255.203 203.286 255.034 203.371 254.696L203.117 254.188H201.975ZM242.98 168.367L250.979 167.606C257.072 168.706 260.796 169.637 262.15 170.399C268.244 174.207 271.883 177.72 273.068 180.936L277.512 187.664C278.612 192.404 279.712 199.048 280.812 207.596C280.135 218.26 279.12 224.269 277.766 225.623C276.835 229.178 275.48 232.987 273.703 237.049C269.641 245.428 266.805 250.421 265.197 252.03C261.812 254.992 258.807 256.473 256.184 256.473C254.999 256.727 254.406 257.108 254.406 257.615L248.82 259.774L248.059 259.647C244.419 260.155 241.584 260.408 239.553 260.408H237.902C237.056 260.408 233.84 259.351 228.254 257.235C226.815 256.727 224.995 255.246 222.795 252.791C221.018 251.522 220.129 250.295 220.129 249.11C217.759 245.809 215.474 240.392 213.273 232.86C212.342 230.321 211.877 228.839 211.877 228.416L211.75 226.385C211.75 212.505 213.781 202.306 217.844 195.789C219.198 193.927 220.383 190.669 221.398 186.014L225.969 180.174C225.969 177.974 229.312 174.8 235.998 170.653C235.998 170.229 238.326 169.468 242.98 168.367ZM260.119 170.78H259.611V171.541C262.15 173.065 263.674 173.826 264.182 173.826V173.573C262.32 171.711 260.965 170.78 260.119 170.78ZM255.295 171.922L254.914 172.303V172.43C257.792 174.461 261.135 175.985 264.943 177V176.746C264.351 175.985 263.251 175.308 261.643 174.715C261.643 174.292 260.373 173.657 257.834 172.811C257.326 172.218 256.649 171.922 255.803 171.922H255.295ZM239.68 175.477V175.731C240.018 175.731 242.134 175.011 246.027 173.573L247.551 173.065V172.43C245.435 172.43 242.811 173.446 239.68 175.477ZM221.271 215.848V226.512C221.271 233.875 223.176 238.615 226.984 240.731C230.793 244.539 233.205 246.444 234.221 246.444C236.76 246.444 238.833 247.248 240.441 248.856L241.584 249.11L242.98 248.856L244.123 249.998H244.25C244.758 249.998 245.393 249.533 246.154 248.602C250.048 248.009 252.714 247.121 254.152 245.936C260.077 240.011 263.039 236.711 263.039 236.033C266.594 227.57 268.371 222.238 268.371 220.037C270.402 212.251 271.883 208.358 272.814 208.358H273.068V207.596C273.068 206.58 272.518 204.972 271.418 202.772C270.826 196.001 270.021 191.854 269.006 190.33C267.229 185.506 262.658 181.232 255.295 177.508C252.756 176.323 251.232 175.731 250.725 175.731H249.836C246.027 177.423 243.954 178.27 243.615 178.27C243.361 178.27 243.234 178.608 243.234 179.285C238.495 182.502 235.66 184.617 234.729 185.633L228.508 193.631C226.984 195.578 225.673 197.99 224.572 200.867C222.372 205.946 221.271 210.939 221.271 215.848ZM225.842 186.649V186.776H226.096C232.189 181.444 235.236 178.481 235.236 177.889H235.109C233.247 177.889 231.216 179.497 229.016 182.713C228.592 182.713 227.915 183.179 226.984 184.11C226.223 184.11 225.842 184.956 225.842 186.649ZM266.467 178.27L265.959 178.778H266.975L266.467 178.27ZM236.506 180.809V180.936H236.887C239.257 180.343 240.441 179.624 240.441 178.778L240.188 178.524H239.807C237.606 179.031 236.506 179.793 236.506 180.809ZM263.674 179.92C263.674 180.936 264.859 181.951 267.229 182.967H267.736C267.99 182.967 268.117 182.755 268.117 182.332C268.117 181.655 266.636 180.851 263.674 179.92ZM271.545 183.602L271.164 184.11V184.617C271.164 185.295 272.434 187.918 274.973 192.489L273.703 187.156C273.703 184.787 273.068 183.602 271.799 183.602H271.545ZM223.811 187.283L223.557 187.664V187.918H224.191V187.283H223.811ZM223.303 188.807H222.922V189.188L223.303 188.934V188.807ZM226.096 191.473L225.08 192.489V192.996H225.588C226.096 192.996 226.35 192.531 226.35 191.6V191.473H226.096ZM276.115 195.916L275.354 195.281L275.227 195.535V195.662L275.607 197.059H276.115V195.916ZM221.906 199.344V200.106L222.414 200.487C222.414 200.063 222.964 198.878 224.064 196.932L224.191 195.916H223.811C222.964 196.678 222.329 197.821 221.906 199.344ZM273.068 211.151H272.434V211.658H272.688L273.068 211.278V211.151ZM275.607 212.42H275.354C275.015 213.69 274.846 215.128 274.846 216.737V216.864H274.973C275.48 216.779 275.734 216.356 275.734 215.594V213.182L275.607 212.42ZM277.639 220.291V220.799H278.146C278.654 219.022 278.908 217.668 278.908 216.737V216.356H278.527C278.02 216.356 277.723 217.668 277.639 220.291ZM270.529 220.291V221.053H271.164L271.545 219.91L271.291 218.641H271.164C270.741 218.641 270.529 219.191 270.529 220.291ZM267.355 232.86H267.609C268.202 232.86 268.752 231.548 269.26 228.924C270.106 227.485 270.529 225.581 270.529 223.211V222.83L270.402 222.449C269.641 222.449 268.752 225.412 267.736 231.336L267.609 231.59L267.355 232.86ZM217.336 226.512L216.955 226.766V226.893L217.336 227.274H217.463L217.844 226.893V226.766L217.463 226.512H217.336ZM213.654 228.416L213.273 228.924V229.94L213.527 230.194H213.781L214.035 229.432V228.797L213.654 228.416ZM264.689 235.906L264.943 236.922C262.489 240.138 261.262 241.916 261.262 242.254H262.15L262.277 242H262.404L262.531 242.254V242.381L256.691 247.205L256.564 247.586H256.691L256.818 247.84H257.072C258.765 247.248 260.754 245.809 263.039 243.524C265.155 240.815 266.382 238.403 266.721 236.287V235.906V235.018C266.721 234.425 266.509 234.045 266.086 233.875H265.832C265.409 233.875 265.028 234.552 264.689 235.906ZM218.225 236.795H218.098V238.065C218.098 239.08 218.648 239.969 219.748 240.731H220.129V240.477C220.129 239.292 219.494 238.065 218.225 236.795ZM261.643 252.03V252.537H261.77C265.07 250.337 266.721 248.686 266.721 247.586H266.213C264.266 249.11 262.743 250.591 261.643 252.03ZM247.043 249.364V249.617H248.439L248.82 249.11V248.856H248.439C247.593 248.856 247.128 249.025 247.043 249.364ZM234.729 249.237C234.729 249.829 235.321 250.337 236.506 250.76V250.633C236.506 249.956 235.913 249.49 234.729 249.237ZM226.35 251.141H226.096V251.649L226.477 251.903H226.857V251.649L226.35 251.141ZM248.566 254.696V255.203H249.328C252.036 254.526 253.391 253.638 253.391 252.537H253.264C252.587 252.537 251.021 253.257 248.566 254.696ZM243.615 252.918L241.711 253.172V253.807H243.615H246.408V253.553C246.408 253.214 245.858 253.003 244.758 252.918H243.615ZM238.918 253.045L238.537 253.299L239.807 253.807V253.553C239.722 253.214 239.426 253.045 238.918 253.045ZM256.818 254.315L256.564 254.696V255.203H257.072L257.58 254.696L257.072 254.315H256.818ZM227.238 255.457V255.711C227.238 256.134 228.677 256.769 231.555 257.615C235.109 258.716 237.521 259.266 238.791 259.266C240.822 259.266 243.911 258.8 248.059 257.869V257.615H245.646L237.014 257.996L231.555 256.092C229.862 255.669 228.423 255.457 227.238 255.457ZM315.725 168.367L323.723 167.606C329.816 168.706 333.54 169.637 334.895 170.399C340.988 174.207 344.628 177.72 345.812 180.936L350.256 187.664C351.356 192.404 352.456 199.048 353.557 207.596C352.88 218.26 351.864 224.269 350.51 225.623C349.579 229.178 348.225 232.987 346.447 237.049C342.385 245.428 339.549 250.421 337.941 252.03C334.556 254.992 331.551 256.473 328.928 256.473C327.743 256.727 327.15 257.108 327.15 257.615L321.564 259.774L320.803 259.647C317.163 260.155 314.328 260.408 312.297 260.408H310.646C309.8 260.408 306.584 259.351 300.998 257.235C299.559 256.727 297.74 255.246 295.539 252.791C293.762 251.522 292.873 250.295 292.873 249.11C290.503 245.809 288.218 240.392 286.018 232.86C285.087 230.321 284.621 228.839 284.621 228.416L284.494 226.385C284.494 212.505 286.525 202.306 290.588 195.789C291.942 193.927 293.127 190.669 294.143 186.014L298.713 180.174C298.713 177.974 302.056 174.8 308.742 170.653C308.742 170.229 311.07 169.468 315.725 168.367ZM332.863 170.78H332.355V171.541C334.895 173.065 336.418 173.826 336.926 173.826V173.573C335.064 171.711 333.71 170.78 332.863 170.78ZM328.039 171.922L327.658 172.303V172.43C330.536 174.461 333.879 175.985 337.688 177V176.746C337.095 175.985 335.995 175.308 334.387 174.715C334.387 174.292 333.117 173.657 330.578 172.811C330.07 172.218 329.393 171.922 328.547 171.922H328.039ZM312.424 175.477V175.731C312.762 175.731 314.878 175.011 318.771 173.573L320.295 173.065V172.43C318.179 172.43 315.555 173.446 312.424 175.477ZM294.016 215.848V226.512C294.016 233.875 295.92 238.615 299.729 240.731C303.537 244.539 305.949 246.444 306.965 246.444C309.504 246.444 311.577 247.248 313.186 248.856L314.328 249.11L315.725 248.856L316.867 249.998H316.994C317.502 249.998 318.137 249.533 318.898 248.602C322.792 248.009 325.458 247.121 326.896 245.936C332.821 240.011 335.783 236.711 335.783 236.033C339.338 227.57 341.115 222.238 341.115 220.037C343.146 212.251 344.628 208.358 345.559 208.358H345.812V207.596C345.812 206.58 345.262 204.972 344.162 202.772C343.57 196.001 342.766 191.854 341.75 190.33C339.973 185.506 335.402 181.232 328.039 177.508C325.5 176.323 323.977 175.731 323.469 175.731H322.58C318.771 177.423 316.698 178.27 316.359 178.27C316.105 178.27 315.979 178.608 315.979 179.285C311.239 182.502 308.404 184.617 307.473 185.633L301.252 193.631C299.729 195.578 298.417 197.99 297.316 200.867C295.116 205.946 294.016 210.939 294.016 215.848ZM298.586 186.649V186.776H298.84C304.934 181.444 307.98 178.481 307.98 177.889H307.854C305.992 177.889 303.96 179.497 301.76 182.713C301.337 182.713 300.66 183.179 299.729 184.11C298.967 184.11 298.586 184.956 298.586 186.649ZM339.211 178.27L338.703 178.778H339.719L339.211 178.27ZM309.25 180.809V180.936H309.631C312.001 180.343 313.186 179.624 313.186 178.778L312.932 178.524H312.551C310.35 179.031 309.25 179.793 309.25 180.809ZM336.418 179.92C336.418 180.936 337.603 181.951 339.973 182.967H340.48C340.734 182.967 340.861 182.755 340.861 182.332C340.861 181.655 339.38 180.851 336.418 179.92ZM344.289 183.602L343.908 184.11V184.617C343.908 185.295 345.178 187.918 347.717 192.489L346.447 187.156C346.447 184.787 345.812 183.602 344.543 183.602H344.289ZM296.555 187.283L296.301 187.664V187.918H296.936V187.283H296.555ZM296.047 188.807H295.666V189.188L296.047 188.934V188.807ZM298.84 191.473L297.824 192.489V192.996H298.332C298.84 192.996 299.094 192.531 299.094 191.6V191.473H298.84ZM348.859 195.916L348.098 195.281L347.971 195.535V195.662L348.352 197.059H348.859V195.916ZM294.65 199.344V200.106L295.158 200.487C295.158 200.063 295.708 198.878 296.809 196.932L296.936 195.916H296.555C295.708 196.678 295.074 197.821 294.65 199.344ZM345.812 211.151H345.178V211.658H345.432L345.812 211.278V211.151ZM348.352 212.42H348.098C347.759 213.69 347.59 215.128 347.59 216.737V216.864H347.717C348.225 216.779 348.479 216.356 348.479 215.594V213.182L348.352 212.42ZM350.383 220.291V220.799H350.891C351.398 219.022 351.652 217.668 351.652 216.737V216.356H351.271C350.764 216.356 350.467 217.668 350.383 220.291ZM343.273 220.291V221.053H343.908L344.289 219.91L344.035 218.641H343.908C343.485 218.641 343.273 219.191 343.273 220.291ZM340.1 232.86H340.354C340.946 232.86 341.496 231.548 342.004 228.924C342.85 227.485 343.273 225.581 343.273 223.211V222.83L343.146 222.449C342.385 222.449 341.496 225.412 340.48 231.336L340.354 231.59L340.1 232.86ZM290.08 226.512L289.699 226.766V226.893L290.08 227.274H290.207L290.588 226.893V226.766L290.207 226.512H290.08ZM286.398 228.416L286.018 228.924V229.94L286.271 230.194H286.525L286.779 229.432V228.797L286.398 228.416ZM337.434 235.906L337.688 236.922C335.233 240.138 334.006 241.916 334.006 242.254H334.895L335.021 242H335.148L335.275 242.254V242.381L329.436 247.205L329.309 247.586H329.436L329.562 247.84H329.816C331.509 247.248 333.498 245.809 335.783 243.524C337.899 240.815 339.126 238.403 339.465 236.287V235.906V235.018C339.465 234.425 339.253 234.045 338.83 233.875H338.576C338.153 233.875 337.772 234.552 337.434 235.906ZM290.969 236.795H290.842V238.065C290.842 239.08 291.392 239.969 292.492 240.731H292.873V240.477C292.873 239.292 292.238 238.065 290.969 236.795ZM334.387 252.03V252.537H334.514C337.814 250.337 339.465 248.686 339.465 247.586H338.957C337.01 249.11 335.487 250.591 334.387 252.03ZM319.787 249.364V249.617H321.184L321.564 249.11V248.856H321.184C320.337 248.856 319.872 249.025 319.787 249.364ZM307.473 249.237C307.473 249.829 308.065 250.337 309.25 250.76V250.633C309.25 249.956 308.658 249.49 307.473 249.237ZM299.094 251.141H298.84V251.649L299.221 251.903H299.602V251.649L299.094 251.141ZM321.311 254.696V255.203H322.072C324.781 254.526 326.135 253.638 326.135 252.537H326.008C325.331 252.537 323.765 253.257 321.311 254.696ZM316.359 252.918L314.455 253.172V253.807H316.359H319.152V253.553C319.152 253.214 318.602 253.003 317.502 252.918H316.359ZM311.662 253.045L311.281 253.299L312.551 253.807V253.553C312.466 253.214 312.17 253.045 311.662 253.045ZM329.562 254.315L329.309 254.696V255.203H329.816L330.324 254.696L329.816 254.315H329.562ZM299.982 255.457V255.711C299.982 256.134 301.421 256.769 304.299 257.615C307.854 258.716 310.266 259.266 311.535 259.266C313.566 259.266 316.656 258.8 320.803 257.869V257.615H318.391L309.758 257.996L304.299 256.092C302.606 255.669 301.167 255.457 299.982 255.457ZM360.031 168.875L361.428 168.494C368.199 168.494 374.038 169.256 378.947 170.78H381.105H382.756L383.01 171.414L382.883 178.778C382.798 179.285 382.502 179.539 381.994 179.539L380.471 178.016L377.043 177.254H375.9L375.139 177.508V178.016C376.324 178.524 377.085 178.778 377.424 178.778V179.031C377.424 179.37 376.451 179.624 374.504 179.793L373.742 204.549V207.215L373.615 241.239V243.27C373.615 244.031 375.985 244.412 380.725 244.412H405.1L409.162 244.666C409.67 244.666 410.093 242.339 410.432 237.684C410.686 236.499 411.066 235.906 411.574 235.906C416.568 236.076 419.064 236.541 419.064 237.303C418.726 238.065 418.218 238.446 417.541 238.446V238.826C418.387 239.673 418.811 240.392 418.811 240.985C418.811 242.931 418.514 245.513 417.922 248.729V250.633L418.049 251.268C417.541 252.199 417.287 253.045 417.287 253.807C417.118 253.807 416.779 254.357 416.271 255.457C414.41 256.134 412.59 256.473 410.812 256.473H410.305L399.387 255.457H398.752L373.742 256.473L356.35 254.823C355.673 254.315 355.334 253.765 355.334 253.172C356.011 248.179 357.069 245.682 358.508 245.682C358.931 245.259 360.581 244.92 363.459 244.666C364.559 241.958 364.602 229.686 363.586 207.85C364.094 201.925 364.517 193.123 364.855 181.444V180.174C364.855 178.905 363.967 178.27 362.189 178.27L361.047 178.016V177.635C362.57 176.873 363.755 176.492 364.602 176.492V175.985L361.682 175.604H359.904V176.112C360.243 176.112 360.412 176.239 360.412 176.492C360.158 176.916 359.777 177.127 359.27 177.127H358.762C357.915 176.789 357.492 175.815 357.492 174.207V173.826C357.492 171.88 358.042 170.653 359.143 170.145C359.396 170.145 359.693 169.722 360.031 168.875ZM361.047 172.811L360.666 173.065V173.319H361.301L361.682 172.938V172.811H361.047ZM377.932 172.938L377.424 173.319V173.573L378.312 173.826V173.953L377.932 174.207L375.393 174.08L375.266 174.207V174.842L375.646 175.223H378.186C379.54 175.223 380.217 174.757 380.217 173.826C379.624 173.234 378.99 172.938 378.312 172.938H377.932ZM368.537 173.826C368.876 174.419 369.807 174.715 371.33 174.715H372.219L372.854 174.08C372.092 173.573 371.33 173.319 370.568 173.319H369.553C368.876 173.319 368.537 173.488 368.537 173.826ZM371.457 176.112L370.822 176.365V176.492L371.076 177H371.965L372.727 176.746V176.365L371.965 176.112H371.457ZM370.949 178.778L370.822 179.031V180.809C370.907 181.909 371.118 182.459 371.457 182.459L372.219 181.951V181.063C372.134 179.539 371.711 178.778 370.949 178.778ZM370.061 203.914H369.68C369.003 207.469 368.96 209.796 369.553 210.897C369.976 211.658 370.272 211.405 370.441 210.135L370.568 205.946C370.484 204.591 370.314 203.914 370.061 203.914ZM416.652 240.731H416.398C415.721 242.508 415.383 243.524 415.383 243.778L414.367 249.11V249.617L414.748 249.998H415.129C416.229 249.49 416.864 247.078 417.033 242.762C416.949 241.408 416.822 240.731 416.652 240.731ZM369.553 241.239H368.918V241.619C368.495 242.889 368.283 243.82 368.283 244.412C368.283 245.597 368.579 246.317 369.172 246.571H369.68C370.018 246.571 370.188 245.343 370.188 242.889V242.381C370.188 241.789 369.976 241.408 369.553 241.239ZM404.465 245.555H403.195V245.936C403.195 246.19 403.745 246.359 404.846 246.444C404.846 247.121 405.607 247.502 407.131 247.586L409.543 247.332V246.824C407.935 246.824 406.242 246.401 404.465 245.555ZM400.91 246.824H397.609V246.951C397.694 247.205 398.117 247.332 398.879 247.332H401.672V246.951L400.91 246.824ZM357.746 248.729C358.423 248.729 358.762 248.433 358.762 247.84V247.586H358.508C358 247.671 357.746 248.052 357.746 248.729ZM370.314 248.475H369.68V249.11C371.203 249.364 378.82 249.829 392.531 250.506L392.785 250.379V250.125L370.314 248.475ZM358 249.617L357.238 249.744V250.125L357.619 250.506H358L358.381 250.125V249.998L358 249.617ZM399.895 250.76L399.641 251.014V251.268L400.783 251.522H402.561V251.268C402.561 250.929 402.264 250.76 401.672 250.76H399.895ZM405.354 252.41V252.537H405.734C406.581 252.537 407.427 252.199 408.273 251.522C408.189 251.183 407.85 251.014 407.258 251.014C406.919 251.014 406.285 251.479 405.354 252.41ZM409.035 252.918L407.131 253.045V253.172C407.808 253.849 408.654 254.188 409.67 254.188H410.051C410.474 254.188 410.855 254.018 411.193 253.68C411.617 254.018 412.082 254.188 412.59 254.188H413.605C414.536 254.188 415.044 254.018 415.129 253.68V253.553C415.129 253.13 413.817 252.918 411.193 252.918H409.035ZM374.377 254.061L371.584 254.188V254.442C371.584 255.034 373.573 255.415 377.551 255.584C380.174 255.584 382.333 255.33 384.025 254.823V254.442C380.471 254.188 377.297 254.061 374.504 254.061H374.377ZM369.045 254.442H368.791V254.823H369.045V254.442ZM388.85 254.442L388.088 254.696V255.203H388.85L390.373 254.823V254.442H388.85Z" fill="#992959"/>
<path d="M244.955 243.596C235.988 240.637 220.661 229.556 231.095 208.9C229.877 215.265 230.945 231.114 244.955 243.596Z" fill="#992959"/>
<path d="M316.283 243.596C307.316 240.637 291.989 229.556 302.423 208.9C301.205 215.265 302.273 231.114 316.283 243.596Z" fill="#992959"/>
</svg>
